<?xml version="1.0" encoding="utf-8"?>
<!-- Generator: Adobe Illustrator 16.0.0, SVG Export Plug-In . SVG Version: 6.00 Build 0)  -->
<!DOCTYPE svg PUBLIC "-//W3C//DTD SVG 1.1//EN" "http://www.w3.org/Graphics/SVG/1.1/DTD/svg11.dtd">
<svg version="1.1" id="Layer_1" xmlns="http://www.w3.org/2000/svg" xmlns:xlink="http://www.w3.org/1999/xlink" x="0px" y="0px"
	 width="248px" height="48.667px" viewBox="0 0 248 48.667" enable-background="new 0 0 248 48.667" xml:space="preserve">
<g>
	<path fill="#EE3536" d="M15.549,15.535c0.145-0.863,1.08-1.848,2.353-1.848c1.2,0,2.136,0.864,2.4,1.729l2.832,9.504h0.048
		l2.832-9.504c0.265-0.864,1.2-1.729,2.4-1.729c1.272,0,2.208,0.984,2.353,1.848l2.232,13.394c0.023,0.144,0.023,0.288,0.023,0.408
		c0,1.056-0.768,1.728-1.729,1.728c-1.224,0-1.704-0.552-1.872-1.68l-1.416-9.769h-0.048l-2.88,10.057
		c-0.168,0.576-0.624,1.392-1.921,1.392c-1.296,0-1.752-0.815-1.92-1.392l-2.88-10.057H18.31l-1.416,9.769
		c-0.168,1.128-0.648,1.68-1.872,1.68c-0.961,0-1.729-0.672-1.729-1.728c0-0.12,0-0.265,0.023-0.408L15.549,15.535z"/>
	<path fill="#EE3536" d="M34.533,15.56c0-1.2,0.768-1.872,1.8-1.872s1.8,0.672,1.8,1.872v8.377c0,2.208,1.416,3.96,3.696,3.96
		c2.185,0,3.673-1.848,3.673-3.96V15.56c0-1.2,0.768-1.872,1.8-1.872s1.8,0.672,1.8,1.872v8.568c0,4.033-3.312,7.081-7.272,7.081
		c-4.008,0-7.296-3-7.296-7.081V15.56z"/>
	<path fill="#EE3536" d="M50.974,15.56c0-1.2,0.768-1.872,1.8-1.872c0.456,0,1.2,0.36,1.512,0.792l7.609,10.153h0.048V15.56
		c0-1.2,0.768-1.872,1.8-1.872s1.8,0.672,1.8,1.872v13.633c0,1.2-0.768,1.872-1.8,1.872c-0.456,0-1.176-0.359-1.512-0.792
		L54.621,20.24h-0.048v8.952c0,1.2-0.768,1.872-1.8,1.872s-1.8-0.672-1.8-1.872V15.56z"/>
	<path fill="#EE3536" d="M67.557,15.56c0-1.2,0.769-1.872,1.8-1.872c1.032,0,1.801,0.672,1.801,1.872v13.633
		c0,1.2-0.769,1.872-1.801,1.872c-1.031,0-1.8-0.672-1.8-1.872V15.56z"/>
	<path fill="#EE3536" d="M80.901,13.543c1.752,0,5.16,0.576,5.16,2.688c0,0.864-0.6,1.608-1.488,1.608
		c-0.984,0-1.656-0.84-3.672-0.84c-2.977,0-4.513,2.52-4.513,5.448c0,2.856,1.561,5.305,4.513,5.305
		c2.016,0,2.832-1.009,3.816-1.009c1.08,0,1.584,1.08,1.584,1.633c0,2.304-3.625,2.832-5.4,2.832c-4.873,0-8.257-3.864-8.257-8.833
		C72.645,17.384,76.005,13.543,80.901,13.543z"/>
	<path fill="#EE3536" d="M87.98,15.56c0-1.2,0.769-1.872,1.8-1.872c1.032,0,1.801,0.672,1.801,1.872v13.633
		c0,1.2-0.769,1.872-1.801,1.872c-1.031,0-1.8-0.672-1.8-1.872V15.56z"/>
	<path fill="#EE3536" d="M93.74,15.703c0-1.128,0.672-1.872,1.872-1.872h4.248c3.528,0,6.145,2.305,6.145,5.737
		c0,3.504-2.712,5.688-6,5.688h-2.664v3.936c0,1.2-0.769,1.872-1.801,1.872c-1.031,0-1.8-0.672-1.8-1.872V15.703z M97.341,22.088
		h2.448c1.512,0,2.472-1.104,2.472-2.544S101.301,17,99.789,17h-2.448V22.088z"/>
	<path fill="#EE3536" d="M107.084,15.56c0-1.2,0.769-1.872,1.8-1.872c1.032,0,1.801,0.672,1.801,1.872v13.633
		c0,1.2-0.769,1.872-1.801,1.872c-1.031,0-1.8-0.672-1.8-1.872V15.56z"/>
	<path fill="#EE3536" d="M112.172,22.376c0-4.992,3.36-8.833,8.257-8.833c4.824,0,8.257,3.961,8.257,8.833
		c0,4.969-3.337,8.833-8.257,8.833C115.556,31.209,112.172,27.345,112.172,22.376z M124.94,22.376c0-2.904-1.512-5.521-4.512-5.521
		c-3.001,0-4.513,2.616-4.513,5.521c0,2.929,1.464,5.521,4.513,5.521C123.477,27.896,124.94,25.305,124.94,22.376z"/>
	<path fill="#EE3536" d="M136.604,15.68c0-1.104,0.768-1.849,1.848-1.849h3.984c5.377,0,8.449,3.457,8.449,8.785
		c0,5.04-3.266,8.305-8.209,8.305H138.5c-0.793,0-1.897-0.432-1.897-1.8V15.68z M140.204,27.608h2.424
		c3.098,0,4.514-2.28,4.514-5.16c0-3.072-1.441-5.305-4.754-5.305h-2.184V27.608z"/>
	<path fill="#EE3536" d="M152.612,15.92c0-1.2,0.6-2.089,1.871-2.089h5.953c1.152,0,1.705,0.816,1.705,1.656
		c0,0.816-0.576,1.656-1.705,1.656h-4.225v3.505h3.938c1.176,0,1.752,0.815,1.752,1.655c0,0.816-0.602,1.656-1.752,1.656h-3.938
		v3.648h4.441c1.15,0,1.703,0.816,1.703,1.656c0,0.816-0.576,1.656-1.703,1.656h-6.193c-1.057,0-1.848-0.72-1.848-1.8V15.92z"/>
	<path fill="#EE3536" d="M170.155,15.56c0-1.2,0.768-1.872,1.799-1.872c1.033,0,1.801,0.672,1.801,1.872v12.049h4.273
		c1.223,0,1.752,0.912,1.727,1.729c-0.047,0.792-0.672,1.584-1.727,1.584h-6.002c-1.176,0-1.871-0.769-1.871-1.968V15.56z"/>
	<path fill="#EE3536" d="M179.708,22.376c0-4.992,3.359-8.833,8.256-8.833c4.824,0,8.258,3.961,8.258,8.833
		c0,4.969-3.338,8.833-8.258,8.833C183.09,31.209,179.708,27.345,179.708,22.376z M192.475,22.376c0-2.904-1.512-5.521-4.512-5.521
		s-4.512,2.616-4.512,5.521c0,2.929,1.463,5.521,4.512,5.521S192.475,25.305,192.475,22.376z"/>
	<path fill="#EE3536" d="M197.706,15.632c0-1.152,0.793-1.801,1.896-1.801h4.609c2.496,0,4.512,1.681,4.512,4.225
		c0,1.681-0.695,2.809-2.232,3.528v0.048c2.041,0.288,3.648,1.992,3.648,4.081c0,3.384-2.256,5.208-5.568,5.208h-4.945
		c-1.104,0-1.92-0.696-1.92-1.824V15.632z M201.307,20.6h1.871c1.176,0,1.945-0.695,1.945-1.896c0-1.128-0.889-1.704-1.945-1.704
		h-1.871V20.6z M201.307,27.753h2.832c1.295,0,2.256-0.744,2.256-2.089c0-1.128-0.865-1.896-2.545-1.896h-2.543V27.753z"/>
	<path fill="#EE3536" d="M210.811,22.376c0-4.992,3.359-8.833,8.256-8.833c4.824,0,8.258,3.961,8.258,8.833
		c0,4.969-3.338,8.833-8.258,8.833C214.194,31.209,210.811,27.345,210.811,22.376z M223.579,22.376c0-2.904-1.512-5.521-4.512-5.521
		s-4.512,2.616-4.512,5.521c0,2.929,1.463,5.521,4.512,5.521S223.579,25.305,223.579,22.376z"/>
	<path fill="#EE3536" d="M238.915,15.943c0,0.937-0.625,1.776-1.607,1.776c-0.984,0-1.754-0.72-3.193-0.72
		c-1.031,0-1.969,0.552-1.969,1.56c0,2.473,8.018,0.889,8.018,7.081c0,3.432-2.832,5.568-6.145,5.568
		c-1.848,0-5.832-0.432-5.832-2.688c0-0.936,0.623-1.704,1.607-1.704c1.129,0,2.473,0.937,4.033,0.937
		c1.584,0,2.447-0.889,2.447-2.064c0-2.832-8.016-1.128-8.016-6.696c0-3.36,2.76-5.449,5.951-5.449
		C235.553,13.543,238.915,14.048,238.915,15.943z"/>
</g>
<g>
	<path fill="#EE3536" d="M-59.628-90.18l-0.629,0.056l0.865,9.704c0.209-0.021,0.418-0.041,0.628-0.058L-59.628-90.18z"/>
	<path fill="#EE3536" d="M-63.615-89.683l-0.621,0.111l1.726,9.602c0.206-0.039,0.413-0.076,0.621-0.111L-63.615-89.683z"/>
	<path fill="#EE3536" d="M-67.542-88.834l-0.608,0.167l2.574,9.422c0.203-0.058,0.406-0.112,0.609-0.167L-67.542-88.834z"/>
	<path fill="#EE3536" d="M-74.868-86.211l-0.571,0.268l4.166,8.868c0.189-0.092,0.381-0.181,0.572-0.269L-74.868-86.211z"/>
	<path fill="#EE3536" d="M-78.381-84.41l-0.546,0.317l4.935,8.486c0.181-0.107,0.362-0.215,0.544-0.32L-78.381-84.41z"/>
	<path fill="#EE3536" d="M-81.692-82.332l-0.517,0.363l5.658,8.04c0.171-0.123,0.344-0.243,0.517-0.363L-81.692-82.332z"/>
	<path fill="#EE3536" d="M-87.742-77.331l-0.445,0.447l6.984,6.96c0.146-0.15,0.295-0.3,0.445-0.448L-87.742-77.331z"/>
	<path fill="#EE3536" d="M-90.582-74.262l-0.402,0.486l7.605,6.291c0.133-0.164,0.268-0.325,0.402-0.486L-90.582-74.262z"/>
	<path fill="#EE3536" d="M-92.904-71.261l-0.359,0.519l8.112,5.634c0.118-0.174,0.237-0.348,0.358-0.52L-92.904-71.261z"/>
	<path fill="#EE3536" d="M-96.894-64.428l-0.265,0.573l8.979,4.137c0.087-0.192,0.177-0.383,0.267-0.573L-96.894-64.428z"/>
	<path fill="#EE3536" d="M-98.412-60.817l-0.213,0.594l9.311,3.346c0.068-0.198,0.14-0.396,0.213-0.594L-98.412-60.817z"/>
	<path fill="#EE3536" d="M-99.609-57.091l-0.162,0.61l9.568,2.528c0.053-0.204,0.109-0.407,0.164-0.61L-99.609-57.091z"/>
	<path fill="#EE3536" d="M-101.019-49.378l-0.053,0.63l9.873,0.836c0.017-0.21,0.036-0.42,0.057-0.629L-101.019-49.378z"/>
	<path fill="#EE3536" d="M-91.3-45.53l-9.916,0.01v0.631l9.914-0.01c-0.001-0.081-0.004-0.162-0.004-0.243
		C-91.306-45.272-91.302-45.401-91.3-45.53z"/>
	<path fill="#EE3536" d="M-101.069-41.474l0.058,0.629l9.869-0.897c-0.021-0.209-0.04-0.418-0.057-0.629L-101.069-41.474z"/>
	<path fill="#EE3536" d="M-99.715-33.586l0.167,0.609l9.544-2.621c-0.057-0.202-0.112-0.405-0.165-0.609L-99.715-33.586z"/>
	<path fill="#EE3536" d="M-98.578-29.923l0.219,0.593l9.281-3.419c-0.073-0.197-0.145-0.396-0.215-0.595L-98.578-29.923z"/>
	<path fill="#EE3536" d="M-97.089-26.272l0.27,0.571l8.943-4.212c-0.09-0.19-0.18-0.382-0.266-0.573L-97.089-26.272z"/>
	<path fill="#EE3536" d="M-93.185-19.425l0.364,0.517l8.066-5.697c-0.122-0.171-0.241-0.345-0.36-0.519L-93.185-19.425z"/>
	<path fill="#EE3536" d="M-90.796-16.277l0.408,0.482l7.533-6.376c-0.137-0.16-0.273-0.32-0.407-0.483L-90.796-16.277z"/>
	<path fill="#EE3536" d="M-88.116-13.325l0.449,0.444l6.935-7.008c-0.15-0.147-0.299-0.297-0.446-0.447L-88.116-13.325z"/>
	<path fill="#EE3536" d="M-82.087-8.226l0.52,0.359l5.593-8.086c-0.173-0.119-0.347-0.239-0.517-0.361L-82.087-8.226z"/>
	<path fill="#EE3536" d="M-78.785-6.104l0.549,0.313l4.861-8.526c-0.184-0.104-0.365-0.21-0.547-0.317L-78.785-6.104z"/>
	<path fill="#EE3536" d="M-75.3-4.272l0.574,0.265l4.094-8.9c-0.191-0.088-0.383-0.178-0.572-0.27L-75.3-4.272z"/>
	<path fill="#EE3536" d="M-67.921-1.551l0.611,0.161l2.48-9.445c-0.205-0.054-0.406-0.11-0.609-0.167L-67.921-1.551z"/>
	<path fill="#EE3536" d="M-64.109-0.687l0.622,0.107l1.653-9.614c-0.208-0.035-0.416-0.071-0.622-0.111L-64.109-0.687z"/>
	<path fill="#EE3536" d="M-60.386-0.169l0.629,0.055l0.848-9.706c-0.211-0.018-0.42-0.036-0.629-0.058L-60.386-0.169z"/>
	<path fill="#EE3536" d="M-71.375-87.601l2.596,9.438c0.457-0.18,0.919-0.351,1.386-0.511L-71.375-87.601z"/>
	<path fill="#EE3536" d="M-56.062-90.461l-0.63,9.91c0.491-0.01,0.181-0.013,0.675-0.003L-56.062-90.461z"/>
	<path fill="#EE3536" d="M-56.034,0l0.017-9.711c-0.491,0.019-0.346-0.026-0.84-0.028L-56.034,0z"/>
	<path fill="#EE3536" d="M-85.133-79.669l5.747,8.015c0.37-0.329,0.748-0.652,1.132-0.965L-85.133-79.669z"/>
	<path fill="#EE3536" d="M-95.181-67.656l8.17,5.589c0.238-0.438,0.485-0.87,0.742-1.297L-95.181-67.656z"/>
	<path fill="#EE3536" d="M-100.524-52.913l9.614,2.463c0.074-0.495,0.16-0.986,0.255-1.475L-100.524-52.913z"/>
	<path fill="#EE3536" d="M-100.501-37.243l9.874-0.973c-0.097-0.488-0.185-0.979-0.261-1.475L-100.501-37.243z"/>
	<path fill="#EE3536" d="M-95.084-22.458l8.917-4.294c-0.259-0.425-0.508-0.856-0.748-1.293L-95.084-22.458z"/>
	<path fill="#EE3536" d="M-84.986-10.49l6.884-7.051c-0.386-0.313-0.767-0.631-1.139-0.959L-84.986-10.49z"/>
	<path fill="#EE3536" d="M-71.422-2.699l4.032-8.91c-0.466-0.16-0.928-0.331-1.385-0.511L-71.422-2.699z"/>
	<path fill="#EE3536" d="M-60.744-64.185c0.034-0.647-0.11-1.559-0.699-2.133c-0.946-0.922-0.838-2.466-0.078-3.149
		c1.366-1.435-0.006-2.872-0.061-3.105c0.607-0.08,1.986,0.441,1.88,1.896c-0.214,1.047-0.067,2.314,0.733,2.977
		c0.858,0.711,0.939,1.975,0.83,2.914c0.062-0.007,0.122-0.017,0.184-0.022l1.303-15.776c-0.709,0.016-1.414,0.051-2.112,0.107
		l0.376,4.21l-0.629,0.056l-0.375-4.208c-0.842,0.084-1.674,0.197-2.497,0.339l0.745,4.145l-0.621,0.112l-0.745-4.146
		c-0.829,0.158-1.648,0.344-2.456,0.558l1.107,4.051l-0.609,0.167l-1.107-4.051c-0.612,0.175-1.219,0.365-1.817,0.571l6.431,14.422
		C-60.892-64.271-60.814-64.166-60.744-64.185z"/>
	<path fill="#EE3536" d="M-71.999-56.563c-0.329-0.619-1.065-1.485-2.149-1.554c-1.318-0.083-2.242-1.326-2.111-2.339
		c0.102-1.979-1.875-2.175-2.068-2.315c0.408-0.458,1.793-0.959,2.66,0.212c0.52,0.934,1.457,1.8,2.496,1.78
		c1.369-0.025,2.392,1.349,2.836,2.175c0.057-0.063,0.113-0.127,0.172-0.188l-9.223-12.862c-0.469,0.416-0.926,0.843-1.371,1.282
		l2.91,2.899l-0.446,0.447l-2.909-2.898c-0.615,0.629-1.206,1.28-1.773,1.953l3.157,2.61l-0.403,0.486l-3.156-2.61
		c-0.49,0.604-0.963,1.222-1.414,1.856l3.361,2.334l-0.361,0.519l-3.358-2.333c-0.39,0.57-0.763,1.151-1.118,1.744l14.23,6.855
		C-72.025-56.526-72.011-56.545-71.999-56.563z"/>
	<path fill="#EE3536" d="M-67.107-61.402c-0.147-0.68-0.553-1.56-1.432-1.949c-1.207-0.535-1.642-2.021-1.167-2.926
		c0.781-1.819-1.004-2.69-1.138-2.89c0.543-0.287,2.016-0.277,2.422,1.122c0.164,1.057,0.742,2.194,1.724,2.537
		c1.173,0.409,1.679,1.8,1.858,2.749c0.087-0.045,0.172-0.092,0.26-0.135l-4.199-15.27c-0.65,0.255-1.291,0.527-1.922,0.819
		l1.773,3.773l-0.572,0.269l-1.773-3.773c-0.739,0.358-1.465,0.742-2.176,1.148l2.088,3.591l-0.546,0.317l-2.086-3.588
		c-0.696,0.415-1.377,0.854-2.041,1.314l2.38,3.382l-0.517,0.363l-2.38-3.382c-0.582,0.419-1.149,0.856-1.704,1.31l11.026,11.299
		C-67.189-61.349-67.147-61.374-67.107-61.402z"/>
	<path fill="#EE3536" d="M-70.134-31.467c-0.658,0.241-1.625,0.856-1.837,1.929c-0.257,1.295-1.611,2.045-2.598,1.781
		c-1.948-0.363-2.405,1.57-2.57,1.744c-0.399-0.467-0.714-1.906,0.563-2.61c0.994-0.391,1.978-1.205,2.097-2.237
		c0.167-1.445,1.848-2.293,2.688-2.576c-0.043-0.06-0.088-0.117-0.131-0.177l-14.246,6.861c0.336,0.553,0.688,1.095,1.053,1.628
		l3.338-2.357l0.365,0.516l-3.343,2.36c0.476,0.668,0.974,1.318,1.492,1.951l3.127-2.646l0.407,0.482l-3.127,2.647
		c0.537,0.632,1.097,1.243,1.677,1.835l2.887-2.917l0.448,0.444l-2.889,2.92c0.484,0.478,0.98,0.94,1.491,1.389l9.218-12.849
		C-70.061-31.388-70.097-31.428-70.134-31.467z"/>
	<path fill="#EE3536" d="M-73.94-37.141c-0.675-0.051-1.94,0.136-2.571,1.139c-0.703,1.118-2.235,1.336-3.063,0.737
		c-1.689-1.034-2.807,0.607-3.023,0.711c-0.207-0.578,0.015-2.034,1.458-2.236c1.068-0.01,2.277-0.42,2.757-1.342
		c0.703-1.352,2.726-1.499,3.551-1.44c-0.018-0.064-0.039-0.128-0.058-0.192l-15.738,1.549c0.134,0.677,0.286,1.347,0.458,2.009
		l3.922-1.077l0.168,0.609l-3.925,1.077c0.212,0.763,0.451,1.514,0.712,2.254l3.82-1.407l0.219,0.593l-3.824,1.409
		c0.287,0.767,0.598,1.521,0.936,2.263l3.688-1.737l0.269,0.571l-3.691,1.739c0.303,0.633,0.623,1.256,0.961,1.868l13.049-8.925
		C-73.892-37.026-73.916-37.084-73.94-37.141z"/>
	<path fill="#EE3536" d="M-75.574-43.67c-0.59-0.295-1.891-0.608-2.863,0.134c-1.051,0.799-2.563,0.464-3.126-0.388
		c-1.218-1.563-2.842-0.418-3.081-0.396c0.011-0.614,0.729-1.9,2.152-1.582c1.003,0.366,2.279,0.408,3.053-0.286
		c1.141-1.025,3.105-0.437,3.846-0.093c0.005-0.081,0.008-0.161,0.013-0.241L-90.91-50.45c-0.096,0.632-0.172,1.268-0.232,1.909
		l4.04,0.343l-0.054,0.629l-4.043-0.343c-0.061,0.787-0.094,1.581-0.102,2.382l4.051-0.004l0.001,0.631l-4.054,0.004
		c0.006,0.851,0.039,1.693,0.104,2.528l4.039-0.367l0.058,0.629l-4.04,0.367c0.065,0.689,0.148,1.374,0.254,2.052l15.32-3.898
		C-75.571-43.616-75.572-43.644-75.574-43.67z"/>
	<path fill="#EE3536" d="M-64.681-27.443c-0.49,0.495-1.01,1.32-0.854,2.274c0.215,1.303-0.789,2.481-1.805,2.581
		c-1.951,0.345-1.699,2.315-1.793,2.536c-0.538-0.296-1.338-1.533-0.391-2.641c0.793-0.716,1.428-1.824,1.176-2.832
		c-0.325-1.305,0.739-2.587,1.445-3.217c-0.053-0.036-0.109-0.071-0.162-0.108l-11.038,11.309c0.524,0.423,1.062,0.834,1.61,1.228
		l2.35-3.398l0.52,0.359l-2.353,3.4c0.669,0.462,1.354,0.901,2.054,1.317l2.055-3.603l0.549,0.313l-2.057,3.606
		c0.709,0.404,1.432,0.784,2.17,1.14l1.74-3.783l0.574,0.264l-1.742,3.789c0.609,0.28,1.229,0.543,1.857,0.788l4.279-15.229
		C-64.558-27.379-64.619-27.412-64.681-27.443z"/>
	<path fill="#EE3536" d="M-56.869-9.755l-0.957-15.708c-0.101-0.01-0.201-0.024-0.301-0.036c-0.217,0.617-0.311,1.428,0.105,2.152
		c0.656,1.146,0.127,2.602-0.789,3.05c-1.708,1.005-0.783,2.764-0.793,3.003c-0.607-0.09-1.789-0.969-1.289-2.338
		c0.492-0.948,0.699-2.208,0.111-3.064c-0.689-1.004-0.303-2.39,0.104-3.265c-0.064-0.016-0.131-0.03-0.195-0.047l-6.518,14.398
		c0.643,0.222,1.293,0.423,1.951,0.607l1.065-4.058l0.61,0.161l-1.066,4.063c0.781,0.204,1.572,0.38,2.374,0.53l0.713-4.147
		l0.622,0.108l-0.713,4.15c0.757,0.129,1.521,0.235,2.295,0.315l0.367-4.206l0.629,0.057L-58.91-9.82
		C-58.14-9.754-57.651-9.771-56.869-9.755z"/>
	<path fill="#EE3536" d="M-74.906-50.451c-0.477-0.482-1.548-1.173-2.68-0.834c-1.266,0.378-2.562-0.468-2.789-1.464
		c-0.59-1.892-2.512-1.393-2.743-1.457c0.226-0.571,1.353-1.521,2.571-0.722c0.81,0.696,1.989,1.185,2.957,0.808
		c1.371-0.534,2.925,0.585,3.557,1.192c0.028-0.067,0.055-0.136,0.084-0.202l-13.063-8.938c-0.317,0.583-0.617,1.175-0.902,1.776
		l3.705,1.706l-0.265,0.574l-3.707-1.707c-0.332,0.735-0.639,1.484-0.921,2.246l3.834,1.377l-0.214,0.595l-3.833-1.378
		c-0.268,0.761-0.509,1.532-0.725,2.315l3.934,1.039l-0.162,0.61l-3.936-1.039c-0.17,0.668-0.32,1.344-0.452,2.027l15.721,1.572
		C-74.925-50.386-74.915-50.418-74.906-50.451z"/>
	<path fill="#EE3536" d="M-58.117-34.941c-0.215-0.119-0.43-0.238-0.645-0.357c-0.121-0.067-0.166-0.063-0.305-0.037
		c-0.13,0.025-0.258,0.062-0.389,0.085c-0.25,0.044-0.329-0.134-0.209-0.351c0.109-0.196,0.332-0.313,0.418-0.523
		c0.324-0.789,0.994-1.738,0.785-2.381c-0.475-1.457-0.104-2.821-0.037-4.215c0.014-0.286,0.422-0.531,0.629-0.659
		c0.088-0.054,0.152-0.074,0.258-0.059c0.278,0.041,0.402,0.266,0.586,0.443c0.068,0.065,0.869,0.781,0.98,0.87v-2.793
		c-0.138-0.06-0.968-0.838-1.052-0.924c-0.138-0.142-0.249-0.306-0.351-0.475c-0.184-0.303-0.332-0.663-0.602-0.902
		c-0.098-0.088-0.215-0.151-0.346-0.167c-0.248-0.031-0.461,0.041-0.578-0.235c-0.092-0.22-0.179-0.442-0.274-0.66
		c-0.183-0.416-0.397-0.83-0.733-1.144c-0.29-0.272-0.654-0.44-1.043-0.515c-0.133-0.025-0.126-0.203-0.148-0.305
		c-0.039-0.181-0.125-0.18-0.292-0.18c-0.315,0-0.631-0.007-0.946-0.007c-0.229,0-0.459,0.001-0.688,0
		c-0.217-0.001-0.395-0.132-0.275-0.354c0.072-0.137,0.175-0.259,0.24-0.401c0.029-0.062,0.076-0.155,0.057-0.226
		c-0.034-0.118-0.176-0.086-0.272-0.086c-0.711,0-1.421,0-2.132,0c-0.457,0-0.913,0-1.37,0c-0.164,0-0.425,0.053-0.572-0.031
		c-0.137-0.078-0.157-0.293-0.028-0.383c0.188-0.131,0.472-0.197,0.684-0.285c0.344-0.143,0.713-0.263,1.044-0.433
		c0.082-0.042,0.151-0.127,0.071-0.212c-0.059-0.061-0.182-0.066-0.259-0.086c-0.184-0.045-0.366-0.089-0.55-0.134
		c-0.25-0.061-0.501-0.122-0.752-0.184c-0.243-0.06-0.433-0.268-0.256-0.495c0.146-0.19,0.332-0.345,0.551-0.445
		c0.42-0.195,0.898-0.188,1.351-0.202c0.306-0.009,0.62-0.003,0.919-0.08c0.107-0.027,0.28-0.076,0.31-0.202
		c0.032-0.139-0.126-0.114-0.223-0.124c-0.172-0.019-0.343-0.036-0.515-0.054c-0.514-0.053-1.026-0.105-1.539-0.159
		c-0.145-0.015-0.509,0.02-0.584-0.124c-0.03-0.06-0.047-0.193-0.006-0.247c0.045-0.059,0.133-0.055,0.196-0.077
		c0.226-0.076,0.452-0.156,0.677-0.233c0.233-0.081,0.466-0.161,0.699-0.241c0.133-0.046,0.805-0.156,0.58-0.413
		c-0.058-0.067-0.181-0.022-0.258-0.019c-0.254,0.014-0.508,0.027-0.762,0.041c-0.314,0.017-0.631,0.033-0.945,0.051
		c-0.121,0.006-0.611,0.047-0.513-0.177c0.049-0.111,0.199-0.22,0.288-0.301c0.098-0.09,0.204-0.17,0.316-0.24
		c0.443-0.275,0.962-0.385,1.47-0.473c0.415-0.071,0.835-0.127,1.238-0.253c0.143-0.045,0.37-0.075,0.384-0.258
		c0.011-0.152-0.137-0.199-0.266-0.174c-0.205,0.041-0.414,0.068-0.621,0.103c-0.639,0.105-1.279,0.211-1.918,0.316
		c-0.323,0.054-0.646,0.106-0.97,0.16c-0.131,0.021-0.28,0.086-0.41,0.032c-0.108-0.044-0.188-0.167-0.093-0.256
		c0.086-0.079,0.195-0.137,0.283-0.22c0.089-0.083,0.177-0.169,0.264-0.255c0.333-0.332,0.65-0.682,1.014-0.982
		c0.297-0.247,0.627-0.457,0.999-0.569c0.199-0.061,0.406-0.093,0.614-0.097c0.152-0.004,0.309,0.005,0.461,0.02
		c0.132,0.012,0.392,0.078,0.313-0.172c-0.034-0.111-0.157-0.087-0.243-0.089c-0.132-0.004-0.269-0.038-0.399-0.056
		c-0.263-0.036-0.528-0.066-0.793-0.04c-0.273,0.028-0.538,0.109-0.8,0.194c-0.115,0.037-0.516,0.219-0.52-0.042
		c-0.002-0.102,0.156-0.234,0.221-0.311c0.094-0.11,0.193-0.216,0.299-0.315c0.383-0.364,0.836-0.644,1.328-0.836
		c0.606-0.238,1.253-0.348,1.896-0.428c0.219-0.028,0.454-0.022,0.668-0.071c0.152-0.034,0.205-0.167,0.039-0.227
		c-0.229-0.083-0.48-0.066-0.717-0.099c-0.234-0.032-0.469-0.065-0.703-0.098c-0.157-0.021-0.322-0.031-0.479-0.065
		c-0.105-0.023-0.299-0.196-0.133-0.22c0.684-0.098,1.248-0.346,1.871-0.612c0.273-0.116,0.559-0.189,0.855-0.224
		c0.164-0.02,0.346,0.036,0.502,0.005c0.178-0.036,0.309-0.21,0.385-0.359c0.066-0.132,0.274-0.286,0.088-0.334
		c-0.123-0.031-0.385-0.019-0.51-0.01c-0.238,0.017-0.475,0.049-0.71,0.088c-0.816,0.139-1.616,0.374-2.397,0.646
		c-0.028,0.013-0.057,0.025-0.086,0.038c-6.986,3.073-11.865,10.055-11.865,18.177c0,9.504,6.763,17.466,15.684,19.412
		c0.008-0.05,0.037-0.232,0.043-0.272c0.043-0.3,0.063-0.395,0.393-0.395c0.252,0.001,0.416,0.052,0.624,0.187
		c0.263,0.169,0.587,0.363,0.905,0.366c0.279,0.003,0.547-0.096,0.744-0.302c0.162-0.171,0.297-0.391,0.355-0.62
		c0.037-0.146-0.228-0.483-0.418-0.556c-0.453-0.171-0.977-0.17-1.412-0.369c-0.297-0.135-0.584-0.639-0.322-0.924
		c0.104-0.111,0.301-0.231,0.455-0.248c0.401-0.045,0.809-0.101,1.214-0.095c0.22,0.003,0.472,0.022,0.645,0.175
		c0.171,0.149,0.198,0.396,0.248,0.607c0.12,0.516,0.093,2.581,0.095,2.769c0,0.034-0.002,0.068-0.006,0.104
		c0.13,0.004,0.971,0.007,1.102,0.009v-8.294C-56.481-34.055-57.654-34.684-58.117-34.941z M-63.074-47.103
		c-1.708-0.098-3.281-0.188-4.939-0.284C-66.889-49.281-64.222-49.121-63.074-47.103z M-66.356-46.188
		c1.191-0.199,2.634-0.489,3.76,0.931c-2.371,0.436-4.563,0.838-6.829,1.253C-69.151-45.789-67.599-45.98-66.356-46.188z
		 M-60.777-36.112c-0.104,0.289-0.191,0.584-0.291,0.875c-0.195,0.575-0.409,1.148-0.715,1.675c-0.363,0.628-3.043,0.32-3.435-0.303
		c-0.087-0.139,0.067-0.484,0.187-0.688c0.438-0.753,0.645-1.572,0.059-2.26c-0.557-0.652-1.235-1.287-1.992-1.66
		c-0.281-0.138-0.537-0.323-0.754-0.55c-0.344-0.36-0.574-0.808-0.787-1.254c-0.109-0.228-0.214-0.457-0.33-0.68
		c-0.052-0.1-0.143-0.211-0.146-0.326c-0.004-0.114,0.041-0.278,0.111-0.368c0.091-0.115,0.2-0.089,0.326-0.108
		c0.344-0.053,0.676-0.145,1.025-0.17c0.311-0.022,0.706,0.021,0.939,0.199c1.382,1.052,1.518,1.048,2.875-0.036
		c0.242-0.193,0.811-0.533,1.048-0.169c0.155,0.238,0.071,0.579,0.069,0.844c-0.001,0.165-0.064,0.708,0.142,0.796
		c0.409,0.175,0.73,0.476,0.907,0.887c0.162,0.379,0.205,0.795,0.262,1.199c0.043,0.307,0.09,0.619,0.205,0.909
		c0.026,0.068,0.057,0.137,0.093,0.201c0.046,0.083,0.115,0.138,0.161,0.22c0.071,0.127,0.096,0.272,0.105,0.416
		C-60.704-36.319-60.73-36.243-60.777-36.112z M-57.443-31.568c-0.02,0.154-0.424,0.376-0.646,0.366
		c-0.45-0.019-0.894-0.095-1.337-0.168c-0.146-0.024-0.414,0.006-0.458-0.173c-0.035-0.143,0.077-0.297,0.187-0.37
		c0.287-0.192,0.626-0.317,0.941-0.451c0.27-0.113,0.57-0.294,0.856-0.348c0.077-0.014,0.214-0.005,0.276,0.049
		c0.09,0.076,0.1,0.253,0.119,0.36C-57.457-32.062-57.412-31.814-57.443-31.568z"/>
</g>
</svg>
