<?xml version="1.0" encoding="utf-8"?>
<!-- Generator: Adobe Illustrator 18.1.1, SVG Export Plug-In . SVG Version: 6.00 Build 0)  -->
<svg version="1.1" id="Capa_1" xmlns="http://www.w3.org/2000/svg" xmlns:xlink="http://www.w3.org/1999/xlink" x="0px" y="0px"
	 viewBox="5 218 507 125" enable-background="new 5 218 507 125" xml:space="preserve">
<g id="XMLID_106_">
	<path id="XMLID_107_" fill="#069DCD" d="M9.3,267.1l3.3-3.9c3,2.6,6.1,4.1,10,4.1c3.3,0,5.6-1.5,5.6-3.9l0,0c0-2.2-1.3-3.5-7.1-4.8
		c-6.7-1.7-10.6-3.5-10.6-9.5l0,0c0-5.4,4.5-9.1,10.8-9.1c4.6,0,8.2,1.5,11.5,3.9l-3.2,3.9c-2.8-2-5.8-3.2-8.6-3.2
		c-3.2,0-5.2,1.7-5.2,3.7l0,0c0,2.4,1.5,3.5,7.4,5c6.7,1.7,10.2,4.1,10.2,9.3l0,0c0,5.9-4.6,9.5-11.3,9.5
		C17.7,272.1,13,270.4,9.3,267.1z"/>
	<path id="XMLID_109_" fill="#069DCD" d="M38.3,259.8L38.3,259.8c0-6.9,4.8-12.5,11.7-12.5c7.6,0,11.3,5.9,11.3,12.8
		c0,0.6,0,0.9,0,1.5H43.9c0.6,3.9,3.3,6.1,6.9,6.1c2.6,0,4.6-0.9,6.5-2.8l3.2,2.8c-2.2,2.8-5.4,4.5-9.7,4.5
		C43.7,272.3,38.3,267.2,38.3,259.8z M56,258.1c-0.4-3.5-2.4-6.3-6.1-6.3c-3.3,0-5.8,2.6-6.1,6.3H56z"/>
	<path id="XMLID_112_" fill="#069DCD" d="M65.6,260L65.6,260c0-6.9,5.2-12.5,12.3-12.5c4.5,0,7.3,1.7,9.5,4.1l-3.3,3.7
		c-1.7-1.7-3.3-3-6.1-3c-3.9,0-6.9,3.3-6.9,7.6l0,0c0,4.3,3,7.6,7.1,7.6c2.6,0,4.5-1.3,6.1-3l3.3,3.2c-2.4,2.6-5,4.5-9.7,4.5
		C70.8,272.3,65.6,266.7,65.6,260z"/>
	<path id="XMLID_114_" fill="#069DCD" d="M92.6,247.9H98v5.4c1.5-3.5,4.3-5.9,8.4-5.8v5.8H106c-4.8,0-8.2,3.2-8.2,9.5v9.1h-5.4v-24
		H92.6z"/>
	<path id="XMLID_116_" fill="#069DCD" d="M110.1,259.8L110.1,259.8c0-6.9,4.8-12.5,11.7-12.5c7.6,0,11.3,5.9,11.3,12.8
		c0,0.6,0,0.9,0,1.5h-17.5c0.6,3.9,3.3,6.1,6.9,6.1c2.6,0,4.6-0.9,6.5-2.8l3.2,2.8c-2.2,2.8-5.4,4.5-9.7,4.5
		C115.3,272.3,110.1,267.2,110.1,259.8z M127.5,258.1c-0.4-3.5-2.4-6.3-6.1-6.3c-3.3,0-5.8,2.6-6.1,6.3H127.5z"/>
	<path id="XMLID_119_" fill="#069DCD" d="M139.6,265v-12.5h-3v-4.6h3v-6.5h5.4v6.5h6.3v4.6H145v11.7c0,2,1.1,3,3,3
		c1.3,0,2.2-0.2,3.3-0.7v4.5c-1.3,0.7-3,1.3-4.8,1.3C142.4,272.1,139.6,270.4,139.6,265z"/>
	<path id="XMLID_121_" fill="#069DCD" d="M171.6,271.7v-3c-1.7,1.9-4.1,3.3-7.6,3.3c-4.5,0-8.6-2.6-8.6-7.4l0,0
		c0-5.2,4.1-7.8,9.7-7.8c3,0,4.6,0.4,6.5,0.9v-0.4c0-3.3-2-5-5.9-5c-2.6,0-4.6,0.6-6.9,1.5l-1.5-4.5c2.6-1.1,5.2-2,9.1-2
		c7.1,0,10.4,3.7,10.4,10v14.1h-5.2V271.7z M171.8,261.7c-1.5-0.6-3.3-0.9-5.4-0.9c-3.3,0-5.4,1.5-5.4,3.7l0,0c0,2.2,2,3.5,4.6,3.5
		c3.5,0,6.3-2,6.3-5v-1.3H171.8z"/>
	<path id="XMLID_124_" fill="#069DCD" d="M183.5,247.9h5.4v5.4c1.5-3.5,4.3-5.9,8.4-5.8v5.8h-0.2c-4.8,0-8.2,3.2-8.2,9.5v9.1h-5.4
		V247.9z"/>
	<path id="XMLID_126_" fill="#069DCD" d="M202.5,247.9h5.4v23.8h-5.4V247.9z M207.7,237.5l5,2.2l-5.6,5.2H203L207.7,237.5z"/>
	<path id="XMLID_129_" fill="#069DCD" d="M229.6,271.7v-3c-1.7,1.9-4.1,3.3-7.6,3.3c-4.5,0-8.6-2.6-8.6-7.4l0,0
		c0-5.2,4.1-7.8,9.7-7.8c3,0,4.6,0.4,6.5,0.9v-0.4c0-3.3-2-5-5.9-5c-2.6,0-4.6,0.6-6.9,1.5l-1.5-4.5c2.6-1.1,5.2-2,9.1-2
		c7.1,0,10.4,3.7,10.4,10v14.1h-5.2V271.7z M229.8,261.7c-1.5-0.6-3.3-0.9-5.4-0.9c-3.3,0-5.4,1.5-5.4,3.7l0,0c0,2.2,2,3.5,4.6,3.5
		c3.5,0,6.3-2,6.3-5v-1.3H229.8z"/>
	<path id="XMLID_132_" fill="#069DCD" d="M255.6,240.1h12.5c7.4,0,12.1,4.3,12.1,10.6l0,0c0,7.1-5.8,10.8-12.6,10.8h-6.3v10.2h-5.6
		V240.1z M267.7,256.5c4.3,0,6.9-2.4,6.9-5.6l0,0c0-3.7-2.6-5.6-6.9-5.6h-6.5v11.3h6.5V256.5z"/>
	<path id="XMLID_135_" fill="#069DCD" d="M299.7,271.7v-3c-1.7,1.9-4.1,3.3-7.6,3.3c-4.5,0-8.6-2.6-8.6-7.4l0,0
		c0-5.2,4.1-7.8,9.7-7.8c3,0,4.6,0.4,6.5,0.9v-0.4c0-3.3-2-5-5.9-5c-2.6,0-4.6,0.6-6.9,1.5l-1.5-4.5c2.6-1.1,5.2-2,9.1-2
		c7.1,0,10.4,3.7,10.4,10v14.1h-5.2V271.7z M299.9,261.7c-1.5-0.6-3.3-0.9-5.4-0.9c-3.3,0-5.4,1.5-5.4,3.7l0,0c0,2.2,2,3.5,4.6,3.5
		c3.5,0,6.3-2,6.3-5v-1.3H299.9z"/>
	<path id="XMLID_138_" fill="#069DCD" d="M312,247.9h5.4v23.8H312V247.9z M317.2,237.5l5,2.2l-5.6,5.2h-4.1L317.2,237.5z"/>
	<path id="XMLID_141_" fill="#069DCD" d="M322.6,268.5l2.4-3.7c2.6,1.9,5.4,3,7.8,3c2.4,0,3.7-0.9,3.7-2.6l0,0
		c0-1.9-2.6-2.4-5.4-3.3c-3.5-0.9-7.4-2.4-7.4-7.1l0,0c0-4.5,3.7-7.3,8.6-7.3c3,0,6.1,1.1,8.7,2.8l-2.2,3.9
		c-2.2-1.5-4.6-2.2-6.7-2.2s-3.3,0.9-3.3,2.4l0,0c0,1.7,2.6,2.4,5.4,3.3c3.5,1.1,7.4,2.6,7.4,6.9l0,0c0,5-3.9,7.4-8.9,7.4
		C329.2,272.1,325.5,271,322.6,268.5z"/>
	<path id="XMLID_143_" fill="#069DCD" d="M361.2,240.1h11.7c9.9,0,16.7,6.9,16.7,15.6l0,0c0,8.9-6.9,15.8-16.7,15.8h-11.7V240.1z
		 M372.9,266.7c6.7,0,11-4.5,11-10.6l0,0c0-6.1-4.3-10.8-11-10.8h-6.1v21.4H372.9z"/>
	<path id="XMLID_146_" fill="#069DCD" d="M396,239h5.9v5.2H396V239z M396.2,247.9h5.4v23.8h-5.4V247.9z"/>
	<path id="XMLID_149_" fill="#069DCD" d="M408.8,276.2l2-4.1c2.6,1.5,5.2,2.6,8.6,2.6c4.8,0,7.6-2.6,7.6-7.3v-1.9
		c-2,2.6-4.5,4.5-8.4,4.5c-5.6,0-10.8-4.1-10.8-11.2l0,0c0-7.1,5.2-11.2,10.8-11.2c4.1,0,6.5,1.9,8.4,4.1v-3.5h5.4v19
		c0,4.1-1.1,7.1-3,8.9c-2.2,2.2-5.6,3.2-9.9,3.2C415.5,279,411.8,278,408.8,276.2z M426.9,258.7L426.9,258.7c0-4.1-3.2-6.7-7.1-6.7
		s-6.7,2.6-6.7,6.5l0,0c0,3.9,3,6.5,6.7,6.5C423.7,265.2,426.9,262.4,426.9,258.7z"/>
	<path id="XMLID_152_" fill="#069DCD" d="M439.1,239h5.9v5.2h-5.9V239z M439.3,247.9h5.4v23.8h-5.4V247.9z"/>
	<path id="XMLID_155_" fill="#069DCD" d="M453.1,265v-12.5h-3v-4.6h3v-6.5h5.4v6.5h6.3v4.6h-6.3v11.7c0,2,1.1,3,3,3
		c1.3,0,2.2-0.2,3.3-0.7v4.5c-1.3,0.7-3,1.3-4.8,1.3C455.9,272.1,453.1,270.4,453.1,265z"/>
	<path id="XMLID_157_" fill="#069DCD" d="M485,271.7v-3c-1.7,1.9-4.1,3.3-7.6,3.3c-4.5,0-8.6-2.6-8.6-7.4l0,0c0-5.2,4.1-7.8,9.7-7.8
		c3,0,4.6,0.4,6.5,0.9v-0.4c0-3.3-2-5-5.9-5c-2.6,0-4.6,0.6-6.9,1.5l-1.5-4.5c2.6-1.1,5.2-2,9.1-2c7.1,0,10.4,3.7,10.4,10v14.1H485
		V271.7z M485,261.7c-1.5-0.6-3.3-0.9-5.4-0.9c-3.3,0-5.4,1.5-5.4,3.7l0,0c0,2.2,2,3.5,4.6,3.5c3.5,0,6.3-2,6.3-5v-1.3H485z"/>
	<path id="XMLID_160_" fill="#069DCD" d="M497.1,238.8h5.4v32.9h-5.4V238.8z"/>
</g>
</svg>
