<?xml version="1.0" encoding="utf-8"?>
<!-- Generator: Adobe Illustrator 19.1.0, SVG Export Plug-In . SVG Version: 6.00 Build 0)  -->
<svg version="1.1" id="Capa_1" xmlns="http://www.w3.org/2000/svg" xmlns:xlink="http://www.w3.org/1999/xlink" x="0px" y="0px"
	 viewBox="0 0 211 43.5" style="enable-background:new 0 0 211 43.5;" xml:space="preserve">
<style type="text/css">
	.st0{fill:#589BC9;}
	.st1{clip-path:url(#SVGID_2_);fill:#FFFFFF;}
	.st2{clip-path:url(#SVGID_2_);fill:#262424;}
	.st3{clip-path:url(#SVGID_2_);fill:#EDCA6C;}
	.st4{clip-path:url(#SVGID_2_);fill:#5B9D61;}
	.st5{clip-path:url(#SVGID_2_);fill:#DFB681;}
	.st6{clip-path:url(#SVGID_2_);fill:#589BC9;}
	.st7{clip-path:url(#SVGID_2_);fill:#BB422D;}
	.st8{fill:#4474B7;}
</style>
<g>
	<path class="st0" d="M34.7,20.7v-7.2h1.7l1.9,3l1.9-3h1.7v7.2h-1.6V16l-2,3.1h0l-2-3v4.7H34.7z"/>
	<path class="st0" d="M43.5,14.6v-1.4h1.6v1.4H43.5z M43.5,20.7v-5.5h1.6v5.5H43.5z"/>
	<path class="st0" d="M46.6,20.7v-5.5h1.6V16c0.2-0.3,0.4-0.5,0.7-0.6s0.6-0.2,0.9-0.2c0.6,0,1,0.2,1.4,0.5c0.3,0.4,0.5,0.9,0.5,1.5
		v3.6H50v-3.1c0-0.4-0.1-0.6-0.2-0.8c-0.2-0.2-0.4-0.3-0.7-0.3c-0.3,0-0.5,0.1-0.7,0.3c-0.2,0.2-0.3,0.5-0.3,0.8v3.1H46.6z"/>
	<path class="st0" d="M53,14.6v-1.4h1.6v1.4H53z M53,20.7v-5.5h1.6v5.5H53z"/>
	<path class="st0" d="M58,20.8c-0.4,0-0.8-0.1-1.2-0.2S56,20.3,55.6,20l0.7-1c0.6,0.4,1.2,0.7,1.7,0.7c0.2,0,0.4,0,0.5-0.1
		c0.1-0.1,0.2-0.2,0.2-0.3v0c0,0,0-0.1,0-0.1s0-0.1-0.1-0.1c0,0-0.1-0.1-0.1-0.1c0,0-0.1,0-0.1-0.1s-0.1,0-0.1-0.1s-0.1,0-0.2-0.1
		s-0.1,0-0.2-0.1c0,0-0.1,0-0.2-0.1c-0.1,0-0.1,0-0.2-0.1c-0.2-0.1-0.3-0.1-0.5-0.2s-0.3-0.1-0.4-0.2c-0.2-0.1-0.3-0.2-0.4-0.3
		c-0.1-0.1-0.2-0.2-0.3-0.4s-0.1-0.4-0.1-0.6v0c0-0.5,0.2-1,0.6-1.3s0.9-0.5,1.4-0.5c0.3,0,0.7,0.1,1.1,0.2c0.4,0.1,0.7,0.3,1,0.5
		l-0.6,1.1c-0.6-0.3-1.1-0.5-1.5-0.5c-0.2,0-0.3,0-0.4,0.1c-0.1,0.1-0.2,0.2-0.2,0.3v0c0,0.1,0,0.2,0.1,0.2c0.1,0.1,0.2,0.1,0.3,0.2
		c0.1,0,0.3,0.1,0.5,0.2c0.1,0,0.1,0,0.2,0.1c0.2,0.1,0.3,0.1,0.5,0.2s0.3,0.1,0.4,0.2s0.3,0.2,0.4,0.3c0.1,0.1,0.2,0.2,0.3,0.4
		c0.1,0.2,0.1,0.3,0.1,0.5v0c0,0.6-0.2,1-0.6,1.3S58.6,20.8,58,20.8z"/>
	<path class="st0" d="M63,20.8c-0.5,0-0.9-0.1-1.2-0.4c-0.3-0.2-0.4-0.7-0.4-1.3v-2.6h-0.7v-1.3h0.7v-1.4H63v1.4h1.3v1.3H63v2.3
		c0,0.2,0,0.3,0.1,0.4c0.1,0.1,0.2,0.1,0.4,0.1c0.3,0,0.5-0.1,0.8-0.2v1.3C63.9,20.7,63.5,20.8,63,20.8z"/>
	<path class="st0" d="M68,20.8c-0.8,0-1.5-0.3-2.1-0.8c-0.5-0.5-0.8-1.2-0.8-2v0c0-0.5,0.1-1,0.3-1.4c0.2-0.4,0.6-0.8,1-1
		c0.4-0.3,0.9-0.4,1.4-0.4c0.4,0,0.8,0.1,1.2,0.2c0.3,0.2,0.6,0.4,0.8,0.7s0.4,0.6,0.5,0.9c0.1,0.4,0.2,0.7,0.2,1.1
		c0,0.1,0,0.2,0,0.4h-3.8c0.1,0.4,0.2,0.6,0.5,0.8c0.2,0.2,0.5,0.3,0.9,0.3c0.3,0,0.5,0,0.7-0.1s0.4-0.2,0.6-0.4l0.9,0.8
		C69.7,20.5,69,20.8,68,20.8z M66.7,17.5H69c0-0.4-0.2-0.6-0.4-0.9s-0.5-0.3-0.8-0.3c-0.3,0-0.6,0.1-0.8,0.3S66.7,17.2,66.7,17.5z"
		/>
	<path class="st0" d="M71.7,20.7v-5.5h1.6v1.1c0.3-0.8,0.9-1.2,1.8-1.2v1.6h-0.1c-0.5,0-0.9,0.2-1.2,0.5c-0.3,0.3-0.4,0.8-0.4,1.5v2
		H71.7z"/>
	<path class="st0" d="M76,14.6v-1.4h1.6v1.4H76z M76.1,20.7v-5.5h1.6v5.5H76.1z"/>
	<path class="st0" d="M81.8,20.8c-0.6,0-1.1-0.1-1.5-0.4c-0.5-0.3-0.8-0.6-1.1-1c-0.3-0.4-0.4-0.9-0.4-1.4v0c0-0.4,0.1-0.8,0.2-1.1
		c0.2-0.4,0.4-0.7,0.6-0.9s0.6-0.5,0.9-0.6c0.4-0.1,0.8-0.2,1.2-0.2c0.6,0,1.1,0.1,1.5,0.4c0.5,0.3,0.8,0.6,1.1,1
		c0.3,0.4,0.4,0.9,0.4,1.4v0c0,0.5-0.1,1-0.4,1.4s-0.6,0.8-1.1,1S82.3,20.8,81.8,20.8z M81.8,19.5c0.4,0,0.8-0.1,1-0.4
		c0.3-0.3,0.4-0.6,0.4-1.1v0c0-0.4-0.1-0.8-0.4-1.1c-0.3-0.3-0.6-0.4-1-0.4c-0.4,0-0.8,0.1-1,0.4c-0.3,0.3-0.4,0.6-0.4,1.1v0
		c0,0.4,0.1,0.8,0.4,1.1C81,19.3,81.4,19.5,81.8,19.5z"/>
	<path class="st0" d="M91.2,20.8c-0.3,0-0.6-0.1-0.9-0.2s-0.6-0.3-0.8-0.5c-0.2-0.2-0.4-0.5-0.6-0.9c-0.1-0.4-0.2-0.8-0.2-1.2v0
		c0-0.4,0.1-0.8,0.2-1.2c0.1-0.4,0.3-0.7,0.6-0.9s0.5-0.4,0.8-0.5s0.6-0.2,0.9-0.2c0.7,0,1.3,0.3,1.7,0.8v-2.7h1.6v7.5h-1.6v-0.8
		C92.5,20.5,91.9,20.8,91.2,20.8z M91.6,19.5c0.4,0,0.7-0.1,0.9-0.4c0.3-0.3,0.4-0.6,0.4-1.1v0c0-0.4-0.1-0.8-0.4-1.1
		s-0.6-0.4-0.9-0.4c-0.4,0-0.7,0.1-1,0.4c-0.3,0.3-0.4,0.6-0.4,1.1v0c0,0.4,0.1,0.8,0.4,1.1C90.9,19.3,91.2,19.5,91.6,19.5z"/>
	<path class="st0" d="M98.5,20.8c-0.8,0-1.5-0.3-2.1-0.8c-0.5-0.5-0.8-1.2-0.8-2v0c0-0.5,0.1-1,0.3-1.4c0.2-0.4,0.6-0.8,1-1
		c0.4-0.3,0.9-0.4,1.4-0.4c0.4,0,0.8,0.1,1.2,0.2c0.3,0.2,0.6,0.4,0.8,0.7s0.4,0.6,0.5,0.9c0.1,0.4,0.2,0.7,0.2,1.1
		c0,0.1,0,0.2,0,0.4h-3.8c0.1,0.4,0.2,0.6,0.5,0.8c0.2,0.2,0.5,0.3,0.9,0.3c0.3,0,0.5,0,0.7-0.1s0.4-0.2,0.6-0.4l0.9,0.8
		C100.2,20.5,99.4,20.8,98.5,20.8z M97.1,17.5h2.3c0-0.4-0.2-0.6-0.4-0.9s-0.5-0.3-0.8-0.3c-0.3,0-0.6,0.1-0.8,0.3
		S97.2,17.2,97.1,17.5z"/>
	<path class="st0" d="M105.4,20.7v-7.2h1.7l1.9,3l1.9-3h1.7v7.2H111V16l-2,3.1h0l-2-3v4.7H105.4z"/>
	<path class="st0" d="M116.8,20.8c-0.6,0-1.1-0.1-1.5-0.4c-0.5-0.3-0.8-0.6-1.1-1c-0.3-0.4-0.4-0.9-0.4-1.4v0c0-0.4,0.1-0.8,0.2-1.1
		c0.2-0.4,0.4-0.7,0.6-0.9s0.6-0.5,0.9-0.6c0.4-0.1,0.8-0.2,1.2-0.2c0.6,0,1.1,0.1,1.5,0.4c0.5,0.3,0.8,0.6,1.1,1
		c0.3,0.4,0.4,0.9,0.4,1.4v0c0,0.5-0.1,1-0.4,1.4s-0.6,0.8-1.1,1S117.4,20.8,116.8,20.8z M116.8,19.5c0.4,0,0.8-0.1,1-0.4
		c0.3-0.3,0.4-0.6,0.4-1.1v0c0-0.4-0.1-0.8-0.4-1.1c-0.3-0.3-0.6-0.4-1-0.4c-0.4,0-0.8,0.1-1,0.4c-0.3,0.3-0.4,0.6-0.4,1.1v0
		c0,0.4,0.1,0.8,0.4,1.1C116.1,19.3,116.4,19.5,116.8,19.5z"/>
	<path class="st0" d="M123.2,20.8c-0.3,0-0.6-0.1-0.9-0.2s-0.6-0.3-0.8-0.5c-0.2-0.2-0.4-0.5-0.6-0.9c-0.1-0.4-0.2-0.8-0.2-1.2v0
		c0-0.4,0.1-0.8,0.2-1.2c0.1-0.4,0.3-0.7,0.6-0.9s0.5-0.4,0.8-0.5s0.6-0.2,0.9-0.2c0.7,0,1.3,0.3,1.7,0.8v-2.7h1.6v7.5h-1.6v-0.8
		C124.4,20.5,123.9,20.8,123.2,20.8z M123.6,19.5c0.4,0,0.7-0.1,0.9-0.4c0.3-0.3,0.4-0.6,0.4-1.1v0c0-0.4-0.1-0.8-0.4-1.1
		s-0.6-0.4-0.9-0.4c-0.4,0-0.7,0.1-1,0.4c-0.3,0.3-0.4,0.6-0.4,1.1v0c0,0.4,0.1,0.8,0.4,1.1C122.9,19.3,123.2,19.5,123.6,19.5z"/>
	<path class="st0" d="M130.4,20.8c-0.8,0-1.5-0.3-2.1-0.8c-0.5-0.5-0.8-1.2-0.8-2v0c0-0.5,0.1-1,0.3-1.4c0.2-0.4,0.6-0.8,1-1
		c0.4-0.3,0.9-0.4,1.4-0.4c0.4,0,0.8,0.1,1.2,0.2c0.3,0.2,0.6,0.4,0.8,0.7s0.4,0.6,0.5,0.9c0.1,0.4,0.2,0.7,0.2,1.1
		c0,0.1,0,0.2,0,0.4h-3.8c0.1,0.4,0.2,0.6,0.5,0.8c0.2,0.2,0.5,0.3,0.9,0.3c0.3,0,0.5,0,0.7-0.1s0.4-0.2,0.6-0.4l0.9,0.8
		C132.1,20.5,131.4,20.8,130.4,20.8z M129.1,17.5h2.3c0-0.4-0.2-0.6-0.4-0.9s-0.5-0.3-0.8-0.3c-0.3,0-0.6,0.1-0.8,0.3
		S129.1,17.2,129.1,17.5z"/>
	<path class="st0" d="M134.1,20.7v-5.5h1.6v1.1c0.3-0.8,0.9-1.2,1.8-1.2v1.6h-0.1c-0.5,0-0.9,0.2-1.2,0.5c-0.3,0.3-0.4,0.8-0.4,1.5
		v2H134.1z"/>
	<path class="st0" d="M138.4,20.7v-5.5h1.6V16c0.2-0.3,0.4-0.5,0.7-0.6s0.6-0.2,0.9-0.2c0.6,0,1,0.2,1.4,0.5
		c0.3,0.4,0.5,0.9,0.5,1.5v3.6h-1.6v-3.1c0-0.4-0.1-0.6-0.2-0.8c-0.2-0.2-0.4-0.3-0.7-0.3c-0.3,0-0.5,0.1-0.7,0.3
		c-0.2,0.2-0.3,0.5-0.3,0.8v3.1H138.4z"/>
	<path class="st0" d="M144.8,14.6v-1.4h1.6v1.4H144.8z M144.8,20.7v-5.5h1.6v5.5H144.8z"/>
	<path class="st0" d="M147.7,20.7v-1.1l2.8-3.1h-2.7v-1.3h4.7v1.1l-2.9,3.1h2.9v1.3H147.7z"/>
	<path class="st0" d="M155.2,20.8c-0.5,0-1-0.1-1.3-0.4s-0.5-0.7-0.5-1.2v0c0-0.6,0.2-1,0.6-1.3c0.4-0.3,0.9-0.4,1.6-0.4
		c0.5,0,0.9,0.1,1.3,0.2v-0.1c0-0.3-0.1-0.6-0.3-0.7c-0.2-0.2-0.5-0.3-0.9-0.3c-0.5,0-1,0.1-1.5,0.3l-0.4-1.2c0.3-0.1,0.7-0.3,1-0.3
		c0.3-0.1,0.7-0.1,1.1-0.1c0.8,0,1.4,0.2,1.9,0.6c0.4,0.4,0.6,1,0.6,1.8v3.2h-1.5v-0.6C156.4,20.6,155.9,20.8,155.2,20.8z
		 M155.6,19.7c0.4,0,0.7-0.1,0.9-0.3c0.2-0.2,0.3-0.4,0.3-0.7v-0.3c-0.3-0.1-0.6-0.2-1-0.2c-0.3,0-0.6,0.1-0.8,0.2
		c-0.2,0.1-0.3,0.3-0.3,0.6v0c0,0.2,0.1,0.4,0.2,0.5C155.2,19.7,155.4,19.7,155.6,19.7z"/>
	<path class="st0" d="M162.3,20.8c-0.5,0-1-0.1-1.5-0.4c-0.4-0.3-0.8-0.6-1-1c-0.2-0.4-0.4-0.9-0.4-1.4v0c0-0.5,0.1-1,0.4-1.4
		c0.2-0.4,0.6-0.8,1-1c0.4-0.3,0.9-0.4,1.5-0.4c0.5,0,0.9,0.1,1.3,0.2c0.3,0.2,0.7,0.4,0.9,0.7l-1,1c-0.2-0.2-0.4-0.4-0.6-0.5
		c-0.2-0.1-0.4-0.1-0.7-0.1c-0.4,0-0.7,0.1-1,0.4c-0.3,0.3-0.4,0.6-0.4,1.1v0c0,0.4,0.1,0.8,0.4,1.1c0.3,0.3,0.6,0.4,1,0.4
		c0.2,0,0.5,0,0.7-0.1s0.4-0.2,0.6-0.4l0.9,0.9c-0.3,0.3-0.6,0.6-1,0.7C163.2,20.7,162.8,20.8,162.3,20.8z"/>
	<path class="st0" d="M165.6,14.6v-1.4h1.6v1.4H165.6z M165.6,20.7v-5.5h1.6v5.5H165.6z"/>
	<path class="st0" d="M171.3,20.8c-0.6,0-1.1-0.1-1.5-0.4c-0.5-0.3-0.8-0.6-1.1-1c-0.3-0.4-0.4-0.9-0.4-1.4v0c0-0.4,0.1-0.8,0.2-1.1
		c0.2-0.4,0.4-0.7,0.6-0.9s0.6-0.5,0.9-0.6c0.4-0.1,0.8-0.2,1.2-0.2c0.6,0,1.1,0.1,1.5,0.4c0.5,0.3,0.8,0.6,1.1,1
		c0.3,0.4,0.4,0.9,0.4,1.4v0c0,0.5-0.1,1-0.4,1.4s-0.6,0.8-1.1,1S171.9,20.8,171.3,20.8z M171.3,19.5c0.4,0,0.8-0.1,1-0.4
		c0.3-0.3,0.4-0.6,0.4-1.1v0c0-0.4-0.1-0.8-0.4-1.1c-0.3-0.3-0.6-0.4-1-0.4c-0.4,0-0.8,0.1-1,0.4c-0.3,0.3-0.4,0.6-0.4,1.1v0
		c0,0.4,0.1,0.8,0.4,1.1C170.6,19.3,170.9,19.5,171.3,19.5z M170.7,14.6l1.1-1.8l1.3,0.6l-1.3,1.2H170.7z"/>
	<path class="st0" d="M175.4,20.7v-5.5h1.6V16c0.2-0.3,0.4-0.5,0.7-0.6s0.6-0.2,0.9-0.2c0.6,0,1,0.2,1.4,0.5
		c0.3,0.4,0.5,0.9,0.5,1.5v3.6h-1.6v-3.1c0-0.4-0.1-0.6-0.2-0.8c-0.2-0.2-0.4-0.3-0.7-0.3c-0.3,0-0.5,0.1-0.7,0.3
		c-0.2,0.2-0.3,0.5-0.3,0.8v3.1H175.4z"/>
</g>
<g>
	<defs>
		<rect id="SVGID_1_" x="1.5" width="217.8" height="45"/>
	</defs>
	<clipPath id="SVGID_2_">
		<use xlink:href="#SVGID_1_"  style="overflow:visible;"/>
	</clipPath>
	<path class="st1" d="M13.3,37.8c-5.3,0-9.5-5.8-9.5-12.7h18.9C22.8,32,18.7,37.8,13.3,37.8"/>
	<path class="st2" d="M15.4,9.2l0.2,0c0,0-0.1-0.7-1.3-0.6h-0.3c0,0-0.1,0.4-0.1,0.4L14.6,9C14.6,9,15.2,8.9,15.4,9.2"/>
	<path class="st2" d="M14,9.7c0,0,0.2-0.2,0.2-0.2s0,0,0,0c0,0,0,0.1,0,0.1c0,0.1,0.1,0.2,0.2,0.3c0,0,0.2,0,0.2,0
		c0.1,0,0.2-0.2,0.2-0.3c0,0,0-0.1,0-0.1c0.1,0,0.2,0.1,0.3,0.2l0.3,0c0,0-0.2-0.7-1.3-0.5c0,0-0.3,0.4-0.3,0.5
		C13.8,9.7,14,9.7,14,9.7"/>
	<path class="st2" d="M11.4,9.7l0.3,0c0.1-0.1,0.2-0.2,0.3-0.2c0,0,0,0.1,0,0.1c0,0.1,0.1,0.3,0.2,0.3c0,0,0.2,0,0.2,0
		c0.1-0.1,0.2-0.2,0.2-0.3c0,0,0,0,0,0c0,0,0.1,0,0.1,0s0.2,0.2,0.2,0.2c0,0,0.3,0,0.3,0c0,0-0.3-0.4-0.3-0.4
		C11.5,9,11.4,9.7,11.4,9.7"/>
	<path class="st2" d="M12.1,8.9L12.9,9c0,0-0.1-0.4-0.1-0.4h-0.2c-1.3-0.1-1.4,0.6-1.4,0.6l0.2,0C11.5,8.9,12.1,8.9,12.1,8.9"/>
	<path class="st2" d="M14.6,18.1C14.6,18.1,14.5,18,14.6,18.1C14.6,18.1,14.6,18.1,14.6,18.1"/>
	<path class="st2" d="M14.4,39.5c0.9-0.1,3.6-1.3,4.5-2c1,0.1,1.4-0.7,2.2-1.1c0-0.1-0.1-0.1-0.2-0.1c0.4-0.3,0.7-0.6,1.1-1
		c-0.1-0.1-0.2-0.1-0.4-0.1c0.7-0.2,0.2-0.5,0.9-1c0,0-0.1-0.1-0.1-0.1c0.4-0.3,0.4-0.7,0.8-1.1c-0.1-0.1-0.2-0.1-0.4-0.1
		c0.8-0.2,0.7-0.8,1.2-1.3c0,0-0.2,0-0.3,0c0.4-0.3,0.3-0.8,0.6-1.3C24.2,30,24.1,30,23.9,30c0.7-0.3,0.6-0.9,1-1.5
		c-0.1-0.1-0.2-0.1-0.3-0.1c0.5-0.5-0.1-0.3,0.3-1.5c-0.1-0.1-0.3,0-0.4,0c0.6-0.5,0.4-1,0.8-1.7c-0.4-0.1-1.2,0.5-1.4,1v-0.1
		c0.1-0.2,0.2-0.4,0.5-0.5c0.8-0.6,0.5-1.1,0.7-2c-0.4,0-1.1,0.6-1.3,1.1c0-0.1,0-0.1,0-0.1c0.1-0.2,0.1-0.5,0.6-0.7
		c0.7-0.4,0.5-1.1,0.7-1.9c-0.1,0-0.3,0-0.4,0.1c0.2-0.5-0.2-0.9-0.1-1.5c-0.4,0-0.9,0.7-0.9,1.2c0-0.1-0.1-0.1-0.1-0.2
		c0.1-0.2,0.1-0.4,0.4-0.7c0.7-0.8,0.1-1.3,0.2-2.1c-0.1,0-0.2,0-0.2,0.1c0-0.4-0.3-0.7-0.4-1.2c-0.4,0-0.8,0.8-0.7,1.3
		c0-0.1-0.1-0.1-0.2-0.2c0-0.2,0.1-0.4,0.4-0.7c0.4-0.8,0-1.2-0.1-2c-0.1,0-0.2,0.1-0.4,0.2c0-0.5-0.3-0.8-0.5-1.3
		c-0.3,0-0.5,0.4-0.6,0.8c0-0.2,0-0.4,0.1-0.6c0-1-0.4-1.1-0.7-1.9c-0.1,0.1-0.2,0.3-0.3,0.6c-0.1-0.7-0.4-0.9-0.8-1.5
		c-0.2,0.2-0.4,0.9-0.3,1.4c-0.1-0.2-0.1-0.3,0-0.6c-0.1-0.8-0.5-1.1-0.9-1.6c0.2,0,0.4-0.1,0.6-0.2c0,0-0.4,0-0.5-0.1
		c-0.2-0.1-0.3-0.3-0.5-0.4c-0.2-0.1-0.4,0-0.8-0.2l2-0.4c0,0-2-0.4-2-0.4s0.1-0.1,0.3-0.2c0.2,0,0.4,0,0.6-0.2
		c0.1-0.1,0.4-0.4,0.9-0.4c-0.5-0.3-0.7-0.2-1.1,0c-0.3,0.2-0.4,0-0.9,0c0,0,1.7-1.1,1.7-1.1l-2,0.4c0.3-0.5,0.6-0.3,0.8-0.9
		c0.1-0.1,0.3-0.4,0.6-0.6c-0.4-0.1-0.8,0.1-1.2,0.6c-0.1,0.1-0.5,0.2-0.7,0.2c0,0,1.1-1.7,1.1-1.7S16.4,7,15.8,7.4v0
		c0.1-0.5,0.4-0.4,0.5-0.9c0-0.2,0-0.6,0.4-0.9c-0.5,0.1-0.7,0.4-0.9,0.9c-0.1,0.2-0.4,0.3-0.6,0.5c0,0,0.4-2,0.4-2l-1.1,1.7
		c0,0-0.1-0.1-0.1-0.3c0.2-0.3,0.2-0.5,0.1-0.7c-0.1-0.3-0.3-0.6,0-1.1C13.9,5,14.2,5.6,14,6c-0.1,0.2-0.2,0.4-0.3,0.5l-0.3-2
		l-0.4,2c-0.3-0.3-0.1-0.4-0.2-0.8c-0.2-0.4-0.5-0.3-0.5-1.1c-0.1,0.3-0.3,0.5,0.1,1.3c0.1,0.1-0.1,0.4,0,0.7L11.2,5l0.4,2
		c-0.3,0-0.3-0.5-0.5-0.6c-0.3-0.2-0.7-0.2-0.9-0.8c-0.1,0.5,0.1,0.7,0.5,1.1c0.2,0.2,0.2,0.5,0.3,0.8L9.3,6.2l1.2,1.7
		C10.1,8,10.1,7.4,9.3,7.5C8.8,7.5,8.6,7,8.6,7.1c0.2,0.9,0.9,0.6,1.1,1c0.1,0.1,0.3,0.3,0.4,0.4l-2-0.4l1.7,1.1
		c-0.3,0.2-0.7-0.2-1,0c-0.6,0.3-1,0-1,0c0.4,0.5,0.7,0.4,1.1,0.4c0.3,0,0.5,0.1,0.9,0.3l-2,0.4l2,0.4c-0.2,0.2-0.6,0.1-0.9,0.3
		c-0.6,0.7-1.2,0.3-1,0.4c0.5,0.4,0.8,0.3,1.1,0.1c-0.2,0.2-0.4,0.3-0.5,0.5c0-0.2-0.1-0.3-0.2-0.4c-0.4,0.6-0.9,0.6-1,1.3
		c0-0.2-0.1-0.4-0.2-0.4c-0.3,0.6-0.7,0.7-0.9,1.4c0-0.2-0.1-0.3-0.2-0.4c-0.3,0.8-0.9,0.9-0.7,2c0.1,0.3,0.1,0.4,0.1,0.6
		c0-0.4-0.2-0.8-0.5-0.9c-0.3,0.4-0.5,0.8-0.6,1.3c-0.1-0.1-0.2-0.1-0.3-0.1c-0.1,0.8-0.7,1-0.1,2C4.1,18.6,4,18.8,4,19
		c0,0-0.1,0.1-0.1,0.1c0-0.5-0.4-1.2-0.8-1.3c-0.1,0.6-0.3,0.8-0.3,1.3c-0.1-0.1-0.2-0.1-0.3-0.1c0.1,0.8-0.5,1.1,0.2,1.9
		c0.4,0.2,0.4,0.5,0.4,0.6c-0.1,0.1-0.1,0.1-0.1,0.2c0-0.5-0.5-1.2-0.9-1.2c0.1,0.9-0.4,0.8-0.1,1.4C2,22.1,1.8,22,1.7,22
		c0.2,0.8,0,1.4,0.7,1.9c0.4,0.2,0.5,0.5,0.6,0.7c0,0,0,0.1,0,0.2c-0.2-0.5-0.9-1.1-1.3-1.1c0.2,0.7,0.1,1.3,0.5,1.7
		c-0.2-0.1-0.5-0.2-0.7-0.2C1.9,26,1.7,26.4,2.4,27c-0.2-0.1-0.5-0.2-0.6-0.1c0.2,0.5,0.1,0.9,0.3,1.3c-0.1,0-0.2,0-0.3,0.1
		c0.4,0.6,0.3,1.1,0.9,1.5c-0.2,0-0.3,0-0.4,0.1c0.3,0.5,0.3,0.8,0.5,1.2c-0.1,0-0.2,0-0.2,0.1c0.5,0.5,0.5,1,1,1.3
		c-0.1,0-0.3,0-0.4,0.1c0.4,0.4,0.5,0.8,0.9,1.1c-0.2,0-0.3,0.1-0.4,0.2c0.6,0.4,0.6,0.8,1.2,1.1c-0.2,0-0.3,0-0.4,0.1
		c0.7,0.6,0.2,0.8,0.9,1c-0.1,0-0.1,0.1-0.1,0.1c0.7,0.4,0.8,1.3,2.5,1.3h0c0.8,0.8,2.9,1.8,4.4,2L14.4,39.5z M24.4,27.4
		c-0.2,0.5,0,0.8-0.4,1.2c-0.3,0.1-0.3,0.2-0.4,0.3c0.1-0.2,0.1-0.4,0.2-0.5c-0.1,0.1-0.2,0.2-0.3,0.3c-0.1-0.1-0.2-0.1-0.4-0.4
		c-0.2-0.4-0.1-0.6-0.1-1c0.2,0.4,0.6,0.7,0.6,1C23.7,27.9,24.2,27.3,24.4,27.4 M23.6,27.7c0.1-0.1,0.2-0.3,0.4-0.4
		c-0.2,0.2-0.4,0.4-0.4,0.6C23.6,27.8,23.6,27.7,23.6,27.7 M24.6,25.6c-0.2,0.5-0.1,0.8-0.6,1.3c-0.3,0.1-0.3,0.2-0.4,0.3
		c0.1-0.2,0.2-0.4,0.3-0.5c-0.1,0.1-0.3,0.2-0.4,0.4c-0.1,0-0.2,0-0.3-0.3c-0.2-0.4,0-0.6-0.1-1c0.2,0.3,0.5,0.6,0.6,0.8
		C23.8,26.3,24.4,25.6,24.6,25.6 M23.7,25.2c0.1-0.4,0.6-1.1,0.8-1.1c-0.2,0.6,0.1,0.8-0.4,1.3c-0.3,0.2-0.3,0.3-0.4,0.4
		c0-0.2,0.1-0.4,0.2-0.6c-0.1,0.1-0.2,0.3-0.3,0.4c-0.1,0-0.2,0-0.4-0.2c-0.3-0.3-0.1-0.5-0.2-0.9C23.3,24.7,23.7,25,23.7,25.2
		 M23.1,24c0.2,0.2,0.3,0.3,0.4,0.5c-0.1-0.1-0.3-0.2-0.4-0.3C23.1,24.1,23.1,24.1,23.1,24 M24.5,22.4c-0.1,0.6,0.1,0.8-0.4,1.3
		c-0.3,0.2-0.3,0.2-0.4,0.3c0-0.2,0.1-0.4,0.2-0.5c-0.1,0.1-0.2,0.2-0.3,0.4c-0.1,0-0.2,0-0.4-0.2c-0.3-0.3-0.1-0.5-0.2-0.9
		c0.3,0.3,0.7,0.5,0.7,0.7C23.8,23.1,24.3,22.4,24.5,22.4 M23.6,22.3c0-0.4,0.4-1.1,0.6-1.1c0,0.5,0.2,0.7-0.1,1.3
		c-0.3,0.2-0.2,0.3-0.3,0.4c0-0.2,0-0.4,0.1-0.5c-0.1,0.1-0.2,0.3-0.2,0.4c-0.1,0-0.2,0-0.5-0.2c-0.3-0.3-0.2-0.5-0.4-0.9
		C23.1,21.9,23.5,22.1,23.6,22.3 M22.5,29.6c0-0.1,0.1-0.2,0.1-0.3c0,0,0,0,0,0.1c0.2,0.7,0.4,0.7,0.3,1.2c0,0,0,0,0,0.1
		C22.9,30.3,22.7,30,22.5,29.6 M21.7,33c0-0.2-0.1-0.4-0.2-0.7c0-0.1,0.1-0.1,0.1-0.2C21.6,32.5,21.7,32.7,21.7,33 M22.3,32.8
		c-0.3,0.1-0.5,0.2-0.7,0.4c0,0,0,0,0-0.1C21.9,33,22,32.8,22.3,32.8 M21.1,31.9c0,0-1.7,0.3-3.7-1.1c0.2-0.2,0.2-0.8,0.2-1.1
		c-0.1-0.3-0.1,0-0.1,0.1c-0.2,0.5-0.3,0.5-0.6,0.7c-0.6-0.6-0.7-0.6-1.5-1.1c-0.6-0.3-0.6-0.5-0.9-0.7c-0.5,0.3-1.4,0.8-1.8,0.5
		c-0.4-0.2,0.4-0.4,0.7-0.9c0.3-0.4,0.6-0.5,1-0.4c0.8,0.2,1.3,0.5,2.5,1c1.5,0.1,2.7,0.6,4.2,0.9c0.3,0.1,0.6,0.1,0.8,0.1
		C21.7,30.6,21.5,31.1,21.1,31.9 M14.3,30.2c0.5,0.5,0.9,0.6,1.2,1.2c-0.1,0.2-0.3,0.2-0.5,0.1c-0.7-0.8-1.3-0.9-1.1-1.3
		c-0.1,0-0.3,0.2-0.2,0.3c0.1,0.5,0.7,0.8,0.9,1.2c-0.1,0.4-0.8,0-1.2-0.9l0,0c-0.1,0.3-0.3,0.4,0.2,1c0.1,0.2,0.2,0.5-0.2,0.4
		c0.1,0.1-0.2,0-0.1,0h0.1c0,0,0,0-0.1,0c0.2-1-0.7-0.8-0.7-0.8c0.1-0.3-0.4-0.7-0.9-0.5c0.1-0.3-0.5-0.7-1.2-0.4
		c-0.1-0.3-0.8-0.5-1.4,0.3c-1.1,0.1-2.9,1.1-4,0.6c0,0-0.7-1.8-0.7-1.8c1.3-0.1,4.2-0.3,5.2-0.8c0.8-0.5,2.3-0.8,2.7-0.6
		c0,0.3-0.7,0.8-0.3,1.1c0.6,0.5,1.5,0.3,2.1-0.1c0.6,0.6,1.7,0.7,2.1,1.6l-0.1,0.3c-0.2,0.2-0.2,0.2-0.5-0.2
		c-0.6-0.8-1.2-0.6-1.3-1.2C14.2,29.8,14.3,30.1,14.3,30.2 M11.4,31.9c-0.2,0.1,0.1-0.1,0.2-0.2l0.1-0.1c0.2-0.2,0.5-0.4,0.6-0.1
		c0.1,0.2-0.7,0.7-0.8,0.7c-0.1,0-0.2,0-0.2-0.1C11.2,32,11.3,31.9,11.4,31.9 M10.7,31.8c-0.1,0-0.2,0.1-0.3-0.1
		c-0.1-0.1,0.2-0.4,0.3-0.5c0.1-0.1,0.2-0.1,0.2-0.1L11,31c0.3,0,0.3,0,0.3,0.1C11.4,31.2,10.8,31.8,10.7,31.8 M12.6,31.9
		c0,0,0.3-0.3,0.4,0.1c0.1,0.2-0.3,0.4-0.6,0.5C12.2,32.4,11.9,32.4,12.6,31.9 M9.9,31.3c-0.1,0-0.3-0.2-0.2-0.2l0.1-0.2
		c0.2-0.1,0.3-0.2,0.4-0.1C10.3,30.9,10.1,31.2,9.9,31.3 M5.1,32.1c0,0.1-0.1,0.1-0.1,0.2C5,32.2,5,32.1,5.1,32.1
		C5.1,32,5.1,32,5.1,32.1 M4.9,32.9c-0.1-0.1-0.3-0.2-0.4-0.3c0.2,0,0.3,0.1,0.4,0.2C4.9,32.8,4.9,32.9,4.9,32.9 M3.8,30.4
		C3.8,30.4,3.8,30.4,3.8,30.4c-0.1-0.5,0.1-0.5,0.3-1.2c0,0.1,0,0.2,0.1,0.3C3.9,29.8,3.7,30.1,3.8,30.4 M3.9,21.3
		c-0.1,0-0.2,0.1-0.3,0.2c0.1-0.1,0.2-0.1,0.3-0.3C3.9,21.3,3.9,21.3,3.9,21.3 M4,25.2h8.9v2.6c-0.4-0.1-1.1-0.1-1.7,0
		c-1.6,0.3-1.1,1.1-6.7,1.2C3.9,27.3,4,25.2,4,25.2 M9.5,12.3c0.1-0.1,0.2-0.1,0.2-0.4c0.2-0.7,0.6-0.6,1.1-0.9
		c0.2,0.2-0.4,1-0.8,1.2c0.2,0,0.6,0.3,0.9,0.4c-0.4,0.1-0.5,0.3-0.9,0.1c-0.3-0.1-0.3-0.2-0.3-0.3c0.1-0.1,0.2-0.3,0.3-0.4
		C9.8,12.1,9.6,12.2,9.5,12.3 M16.2,12.1c-0.2,0-0.3,0-0.5-0.1c0.2-0.1,0.4-0.2,0.6-0.3c0.4,0.1,0.7,0.3,0.7,0.6
		c-0.3-0.1-0.4,0.1-0.9,0.2c-0.4,0.1-0.7-0.2-1.1-0.2C15.1,12.2,15,12.1,15,12c0.2,0,0.4,0,0.6,0l0,0.1C15.8,12.1,16,12.1,16.2,12.1
		 M14.8,11.5c0.2,0,0.4,0,0.6-0.1c-0.1,0-0.3,0-0.4,0c0.3-0.2,0.5-0.4,0.8-0.4c0.5,0,0.5,0.3,0.8,0.1C16.6,11.4,15.2,12.1,14.8,11.5
		 M14.1,11.4c0.2,0.1,0.5,0.5,0.7,0.8c-0.4-0.1-0.6,0-0.9-0.3c-0.2-0.2-0.2-0.3-0.2-0.4c0.2-0.1,0.3-0.1,0.4-0.3
		c-0.2,0.1-0.3,0.1-0.5,0.2c0.1-0.1,0.2,0,0.3-0.3c0.5-0.4,0.7-0.2,1.2-0.3C15.1,10.9,14.5,11.3,14.1,11.4 M13,11.5
		c0.2,0,0.5,0.4,0.8,0.6c-0.4,0-0.6,0.1-0.9-0.1c-0.3-0.2-0.3-0.3-0.3-0.4c0.1-0.1,0.2-0.2,0.3-0.3c-0.1,0.1-0.3,0.2-0.5,0.3
		c0.1-0.1,0.2-0.1,0.3-0.4c0.4-0.5,0.6-0.3,1.1-0.5C13.8,10.8,13.3,11.4,13,11.5 M12.2,12.2c-0.4,0-0.6,0.2-0.9,0
		c-0.3-0.1-0.3-0.3-0.3-0.3c0.1-0.1,0.3-0.2,0.3-0.4c-0.1,0.1-0.3,0.2-0.5,0.3c0.1-0.1,0.2-0.1,0.3-0.4c0.4-0.6,0.6-0.4,1.1-0.7
		c0,0.2-0.5,0.8-0.9,1C11.5,11.7,11.9,12,12.2,12.2 M18.6,14.1c0.1,0,0.1,0,0.1,0C18.7,14.1,18.6,14.1,18.6,14.1
		C18.6,14.1,18.6,14.1,18.6,14.1 M21.8,18.6c0.1,0.1,0.2,0.1,0.2,0.2C22,18.7,21.9,18.7,21.8,18.6C21.9,18.6,21.9,18.6,21.8,18.6
		 M17.2,28.5c-0.9-0.2-2-1.2-3.3-1.1v-2.2h8.8c0,0.3-0.2,2.7-0.6,4.3C20.3,29.4,18.6,28.4,17.2,28.5 M22.7,21.2
		c0.1,0.1,0.3,0.2,0.4,0.3c-0.1-0.1-0.2-0.1-0.3-0.2C22.7,21.3,22.7,21.3,22.7,21.2 M23.8,19.5c0,0.5,0.2,0.7-0.1,1.3
		c-0.3,0.2-0.2,0.3-0.3,0.4c0-0.2,0-0.4,0.1-0.5c-0.1,0.1-0.2,0.3-0.2,0.4c-0.1,0-0.2,0-0.5-0.2c-0.3-0.3-0.2-0.5-0.4-0.9
		c0.3,0.2,0.7,0.4,0.9,0.7C23.2,20.2,23.6,19.6,23.8,19.5 M22.9,19.5c-0.1-0.4,0.2-1.1,0.3-1.2c0.1,0.5,0.4,0.7,0.1,1.3
		c-0.2,0.2-0.2,0.3-0.2,0.4c0-0.2-0.1-0.4,0-0.6C23,19.6,23,19.7,23,19.9c-0.1,0-0.2,0.1-0.5-0.1c-0.4-0.2-0.3-0.5-0.6-0.8
		C22.3,19.2,22.7,19.3,22.9,19.5 M22.5,16.8c0.1,0.6,0.4,0.7,0.1,1.3c-0.3,0.2-0.2,0.3-0.2,0.4c0-0.2-0.1-0.4,0-0.5
		c-0.1,0.1-0.1,0.3-0.1,0.4c-0.1,0-0.2,0.1-0.5-0.2c-0.4-0.3-0.3-0.5-0.6-0.8c0.4,0.2,0.8,0.4,1,0.6C22.1,17.5,22.3,16.8,22.5,16.8
		 M21.7,15.6c0.2,0.5,0.5,0.7,0.4,1.2c-0.2,0.2-0.1,0.3-0.2,0.4c-0.1-0.2-0.1-0.4-0.1-0.5c-0.1,0.1-0.1,0.3-0.1,0.4
		c-0.1,0-0.2,0.1-0.5-0.1c-0.4-0.2-0.4-0.4-0.7-0.8c0.4,0.2,0.9,0.3,1.1,0.4C21.5,16.4,21.6,15.7,21.7,15.6 M21.3,16.5
		c-0.1-0.1-0.2-0.2-0.3-0.2C21.1,16.3,21.2,16.3,21.3,16.5C21.3,16.4,21.3,16.4,21.3,16.5 M20.7,14.1c0.2,0.5,0.4,0.5,0.4,1.2
		c-0.1,0.4,0,0.4,0,0.5c-0.1-0.2-0.2-0.4-0.2-0.6c0,0.2,0,0.4,0,0.5c-0.1,0-0.1,0.1-0.4,0.1c-0.4-0.1-0.4-0.4-0.7-0.6
		c0.4,0.1,0.8,0,1,0.2C20.5,15,20.6,14.2,20.7,14.1 M19.8,14.4c-0.2-0.3-0.2-1.1-0.1-1.2c0.3,0.5,0.5,0.4,0.5,1
		c-0.1,0.4,0,0.4,0,0.5c-0.1-0.2-0.2-0.3-0.3-0.5c0,0.2,0,0.4,0.1,0.5c-0.1,0-0.1,0.2-0.4,0.1c-0.4,0-0.5-0.3-0.8-0.5
		C19.2,14.4,19.6,14.2,19.8,14.4 M18.4,12c0.3,0.5,0.6,0.4,0.7,1.1c-0.1,0.3,0,0.4,0,0.5c-0.1-0.2-0.2-0.3-0.3-0.5
		c0,0.2,0,0.3,0.1,0.5c-0.1,0-0.1,0.2-0.5,0.1c-0.4,0-0.5-0.3-0.8-0.4c0.4,0,0.8-0.2,1,0C18.4,13,18.3,12.2,18.4,12 M18.1,11.6
		c0,0.1,0,0.1,0,0.2c-0.1-0.1-0.1-0.2-0.2-0.2C18,11.6,18.1,11.6,18.1,11.6 M18,12.1c-0.1,0.4,0.1,0.4,0.1,0.5c0,0-0.1,0-0.1,0
		c-0.1-0.1-0.3-0.3-0.3-0.4c0.1,0.3,0.1,0.4,0.2,0.5c0,0.1-0.1,0.1-0.3,0.1c-0.5,0-0.6-0.1-0.8-0.2c0.4-0.1,0.5-0.3,0.9-0.2
		c0,0,0,0,0-0.1c0,0,0,0,0,0l0,0c0-0.1-0.1-0.2-0.3-0.4c-0.2-0.3-0.3-0.6-0.2-0.7C17.5,11.7,17.8,11.5,18,12.1 M17.7,11.2h-0.4
		c-0.1,0-0.1-0.1-0.1-0.1C17.3,11.1,17.6,11.1,17.7,11.2 M10.1,10.8c0.4-0.2,0.5-0.3,0.5-0.3l-1.2-0.3l1.3-0.3c0,0,0-0.1-0.8-0.3
		c-0.1,0,0-0.2-0.6-0.3c0.2,0,0.2,0.1,0.6,0.1c0.3,0,0.5,0.1,0.9,0c0,0-0.7-0.6-1.2-0.8c0,0,0.8,0.2,1.5,0.4c0-0.1-0.5-0.5-0.9-0.9
		C9.9,8,9.9,7.9,9.8,7.8c0.4,0.1,0.4,0.2,0.5,0.4c0.2,0.1,0.6,0.3,0.8,0.3c-0.4-0.5-0.9-1.3-0.9-1.3l1.3,0.9c0-0.3-0.3-0.6-0.3-0.7
		c-0.2-0.5-0.1-0.5-0.2-0.7c0.3,0.5,0.5,0.8,1,1.1l-0.2-1.6l0.8,1.4c0-0.2,0-0.6,0-0.7c0.1-0.7,0.1-0.3,0-0.8
		c0.1,0.3,0.1,0.3,0.1,0.6c0.1,0.3,0.2,0.5,0.4,0.8L13.4,6c0,0,0.2,1.5,0.2,1.5c0.2-0.3,0.1-0.5,0.3-0.7c0.2-0.4,0.3-0.7,0.3-0.7
		c-0.1,0.6-0.1,0.4-0.2,0.7c0,0.3,0,0.8,0.1,0.8l0.9-1.3l-0.4,1.6c0.1,0,0.5-0.5,0.8-0.8c0.1-0.1,0.3-0.4,0.3-0.4
		c-0.2,0.3-0.3,0.5-0.4,0.7c-0.2,0.4-0.1,0.2-0.3,0.8l1.3-0.9l-0.9,1.3c0,0,0.1,0,0.7-0.3C16.6,8.2,16.9,8,17,7.9
		c-0.4,0.4-0.6,0.4-1.2,1.1l1.5-0.3c0,0-1.2,0.7-1.3,0.8c0.1,0.1,0.6-0.1,1,0c0.3,0,0.3,0,0.7,0c-0.4,0.1-0.5,0.1-0.9,0.2
		c-0.2,0.1-0.6,0.2-0.6,0.3l1.5,0.3c0,0-1.5,0.3-1.7,0.4c-0.1,0-0.2,0-0.3,0c-0.1,0-0.1,0-0.2,0c0.1-0.1,0.1-0.2,0.1-0.3
		c-0.5,0.1-1,0-1.4,0.1c0-0.1,0-0.2,0-0.3c-0.6,0.3-1.1,0.1-1.6,0.6c0-0.1,0-0.3-0.1-0.4c-0.5,0.3-1,0.1-1.4,0.4c0-0.1,0-0.2,0-0.3
		c-0.6,0.2-1,0.3-1.4,0.7c-0.1,0-0.2,0-0.3,0c0,0,0,0,0-0.1c0,0,0,0-0.1,0.1c-0.1,0-0.2,0-0.3,0C9.5,11,9.8,11,10.1,10.8 M8.3,12.6
		c0.2-0.6,0.5-0.5,0.9-0.9c0.1,0.2-0.2,0.9-0.5,1.1c0.2-0.1,0.6,0.2,1,0.2c-0.4,0.1-0.5,0.3-0.9,0.3c-0.3,0-0.3-0.2-0.4-0.2
		c0.1-0.1,0.1-0.3,0.2-0.4c-0.1,0.2-0.2,0.3-0.3,0.4C8.3,13,8.3,13,8.3,12.6 M9.1,12.7C9.1,12.7,9.1,12.7,9.1,12.7
		C9.1,12.7,9.1,12.7,9.1,12.7L9.1,12.7z M7.4,13.4c0.1-0.6,0.4-0.6,0.7-1.1c0.1,0.2-0.1,0.9-0.3,1.2c0.2-0.1,0.6,0,1,0.1
		C8.4,13.8,8.4,14,8,14c-0.3,0-0.4-0.1-0.4-0.1c0.1-0.1,0.1-0.3,0.1-0.5c-0.1,0.2-0.2,0.3-0.3,0.5C7.4,13.7,7.5,13.7,7.4,13.4
		 M7.1,13.9c0,0.1-0.1,0.2-0.1,0.2c0,0,0,0,0,0C7.1,14.1,7.1,14,7.1,13.9 M6.3,14.2c0.1-0.7,0.2-0.6,0.5-1.1
		c0.1,0.2,0.1,0.9-0.1,1.2c0.2-0.1,0.6,0,1,0c-0.3,0.2-0.4,0.5-0.8,0.5c-0.3,0-0.4-0.1-0.4-0.1c0.1-0.2,0.1-0.3,0.1-0.5
		c0,0.2-0.1,0.4-0.2,0.5C6.3,14.6,6.4,14.6,6.3,14.2 M5.8,14.2c0.1,0.1,0.1,0.9,0,1.3c0.2-0.1,0.6-0.1,1-0.1
		c-0.3,0.2-0.3,0.5-0.7,0.6c-0.3,0.1-0.4,0-0.4-0.1c0-0.2,0.1-0.3,0-0.5c0,0.2-0.1,0.4-0.2,0.6c0-0.1,0.1-0.2,0-0.5
		C5.4,14.7,5.6,14.7,5.8,14.2 M5.2,16.5c0.1-0.1,0.1-0.1,0.2-0.1C5.3,16.4,5.2,16.5,5.2,16.5C5.2,16.5,5.2,16.5,5.2,16.5 M4.8,15.7
		c0.2,0.1,0.3,0.8,0.1,1.1c0.2-0.2,0.7-0.3,1.1-0.4c-0.3,0.3-0.3,0.5-0.7,0.7c-0.3,0.2-0.4,0.1-0.5,0.1c0-0.1,0-0.3-0.1-0.4
		c0,0.2,0,0.4-0.1,0.5c0-0.1,0.1-0.2-0.1-0.4C4.3,16.4,4.6,16.2,4.8,15.7 M3.9,18.1c-0.3-0.5,0-0.7,0.1-1.2c0.2,0.1,0.4,0.7,0.3,1.1
		c0.2-0.2,0.6-0.3,1-0.6c-0.2,0.3-0.2,0.6-0.6,0.8c-0.3,0.2-0.4,0.1-0.5,0.2c0-0.2-0.1-0.3-0.1-0.4c0,0.2,0,0.4,0,0.5
		C4.1,18.4,4.2,18.3,3.9,18.1 M4.8,18.6c0,0.1,0,0.1-0.1,0.1c-0.1,0-0.3,0.1-0.4,0.2C4.4,18.8,4.5,18.7,4.8,18.6 M3.4,18.4
		c0.2,0.1,0.4,0.8,0.3,1.1c0.1-0.2,0.6-0.3,1-0.5c-0.2,0.3-0.2,0.5-0.6,0.8c-0.3,0.2-0.4,0.1-0.5,0.1c0-0.2-0.1-0.3-0.1-0.4
		c0,0.2,0,0.3,0,0.5c0-0.1,0-0.2-0.2-0.4C3,19.1,3.3,18.9,3.4,18.4 M3,20.8c-0.3-0.5-0.1-0.7-0.1-1.2c0.2,0,0.5,0.7,0.6,1.1
		C3.5,20.4,4,20.2,4.3,20c-0.2,0.4-0.1,0.6-0.4,0.9C3.6,21.1,3.5,21,3.4,21c0-0.2-0.1-0.3-0.2-0.4c0.1,0.2,0.1,0.3,0.1,0.5
		C3.2,21,3.3,21,3,20.8 M2.4,21.1c0.2,0,0.6,0.7,0.6,1.1c0.1-0.2,0.5-0.4,0.8-0.6c-0.2,0.4-0.1,0.6-0.4,0.9
		c-0.2,0.2-0.4,0.1-0.5,0.2c0-0.1-0.1-0.3-0.2-0.4c0.1,0.2,0.1,0.4,0.1,0.5c-0.1-0.1,0-0.2-0.3-0.4C2.2,21.9,2.5,21.7,2.4,21.1
		 M3,23.8c-0.1-0.2-0.2-0.3-0.3-0.4c0.1,0.2,0.2,0.3,0.2,0.5c-0.1-0.1-0.1-0.2-0.4-0.3c-0.4-0.5-0.3-0.6-0.4-1.1
		c0.2,0,0.7,0.6,0.8,0.9C3,23.2,3.4,23,3.6,22.7c-0.1,0.4,0.1,0.6-0.2,0.9C3.2,23.8,3.1,23.8,3,23.8 M3.5,23.9v0.2
		c-0.1,0.1-0.3,0.2-0.4,0.3C3.2,24.2,3.3,24.2,3.5,23.9 M2.1,24.1c0.2,0,0.7,0.6,0.8,1c0.1-0.2,0.4-0.4,0.7-0.7
		c-0.1,0.4,0.1,0.6-0.2,0.9c-0.2,0.2-0.3,0.2-0.4,0.2c-0.1-0.2-0.2-0.3-0.3-0.4c0.1,0.2,0.2,0.3,0.2,0.5c-0.1-0.1,0-0.2-0.4-0.4
		C2.1,24.8,2.3,24.7,2.1,24.1 M2.9,26.1L2.9,26.1c-0.1-0.1-0.3-0.3-0.5-0.5C2.8,25.7,2.9,25.9,2.9,26.1 M2.1,25.7
		c0.2,0,0.7,0.5,0.9,0.8c0-0.2,0.3-0.5,0.5-0.8c0,0.4,0.2,0.6-0.1,1C3.3,27,3.2,26.9,3.1,27c-0.1-0.1-0.2-0.3-0.4-0.4
		C2.9,26.7,3,26.9,3,27.1C2.9,27,3,26.9,2.6,26.8C1.8,26.1,2.7,27,2.1,25.7 M3.1,27.6c0,0,0,0.1,0,0.1c-0.1-0.2-0.3-0.4-0.5-0.6
		C2.8,27.3,3,27.4,3.1,27.6 M3.1,28.1c0-0.3,0.4-0.6,0.6-1c-0.1,0.4,0.1,0.6-0.1,1c-0.2,0.3-0.3,0.3-0.4,0.4
		c-0.1-0.1-0.2-0.2-0.3-0.3C3,28.3,3,28.5,3.1,28.7C3,28.6,3,28.5,2.7,28.4c-0.5-0.4-0.3-0.5-0.4-1C2.4,27.4,3,27.8,3.1,28.1
		 M2.4,28.6c0.2-0.1,0.8,0.3,1,0.7c0-0.2,0.3-0.6,0.4-1c0,0.4,0.2,0.6,0,1c-0.1,0.4-0.2,0.4-0.3,0.4c-0.1-0.1-0.2-0.2-0.4-0.3
		c0.1,0.1,0.2,0.3,0.3,0.4c-0.1-0.1-0.1-0.2-0.4-0.2C2.5,29.4,2.6,29,2.4,28.6 M3.8,30.8c0-0.2,0.3-0.6,0.4-1c0,0.4,0.2,0.5,0.1,1
		c-0.1,0.3-0.2,0.3-0.3,0.4c-0.1-0.1-0.2-0.2-0.4-0.2C3.8,31,3.9,31.2,4,31.4c-0.1-0.1-0.1-0.2-0.4-0.2c-0.5-0.3-0.4-0.6-0.7-1
		C3.1,30.1,3.7,30.5,3.8,30.8 M3.2,31.4c0.2-0.1,0.9,0.2,1.1,0.5c-0.1-0.2,0.2-0.6,0.3-1.1c0.1,0.4,0.3,0.5,0.2,0.9
		c0,0.3-0.2,0.4-0.2,0.4C4.4,32.1,4.3,32,4.1,32c0.2,0.1,0.3,0.2,0.4,0.4c-0.1-0.1-0.1-0.1-0.5-0.1C3.5,32.1,3.6,31.8,3.2,31.4
		 M3.9,32.8C4.1,32.7,4.8,33,5,33.3c-0.1-0.2,0.2-0.6,0.3-1c0.1,0.4,0.3,0.5,0.2,0.9c-0.1,0.3-0.2,0.3-0.2,0.4
		c-0.1-0.1-0.3-0.2-0.4-0.2c0.2,0.1,0.3,0.2,0.4,0.4c-0.1-0.1-0.1-0.1-0.5-0.1C4.1,33.5,4.3,33.2,3.9,32.8 M4.4,33.9
		c0.2-0.1,0.9,0.1,1.2,0.4c-0.1-0.2,0.1-0.6,0.1-1c0.2,0.4,0.4,0.4,0.4,0.9c0,0.3-0.1,0.4-0.2,0.4c-0.1-0.1-0.3-0.1-0.5-0.1
		c0.2,0.1,0.3,0.2,0.5,0.3c-0.1,0-0.1-0.1-0.5,0C4.8,34.6,4.9,34.2,4.4,33.9 M6.2,35c0,0.1,0,0.1,0.1,0.2c-0.2-0.1-0.4-0.2-0.6-0.3
		C5.8,34.9,6,35,6.2,35 M5.2,35.1c0.2-0.1,1,0.2,1.2,0.5c-0.1-0.2,0.1-0.6,0.1-1c0.1,0.4,0.4,0.5,0.4,0.9c0,0.3-0.1,0.3-0.2,0.4
		c-0.1-0.1-0.3-0.1-0.5-0.2c0.2,0.1,0.3,0.2,0.5,0.3c-0.1,0-0.1-0.1-0.5-0.1C5.5,35.8,5.6,35.5,5.2,35.1 M8,37.1
		c-0.1-0.1-0.3-0.2-0.5-0.2c-0.7-0.1-0.9-0.5-1.4-0.8c0.2-0.1,1,0,1.3,0.3c-0.1-0.2,0-0.6,0-1c0.2,0.3,0.5,0.4,0.5,0.8
		C7.9,36.6,7.9,36.8,8,37c-0.1-0.1-0.2-0.2-0.4-0.2C7.8,36.8,7.9,36.9,8,37.1 M7.1,36.1L7.1,36.1L7.1,36.1L7.1,36.1z M11.5,38.9
		c-1.5-0.5-2.8-1.2-3.1-1.7c-0.1-0.3-0.2-0.6-0.2-1c0,0,0,0,0,0c1.1,0.9,2.2,1.5,3.4,1.8h-0.1C11.1,38.5,11.3,38.7,11.5,38.9
		 M13.3,37.7c-4.1-0.1-6.5-3.4-7.4-5c-0.1-0.2,2.3-1,2.9-1.1l0.7-0.2c0,0.3,0.5,0.4,0.5,0.3c0.1,0.1,0,0.3,0.3,0.5
		c0.3,0.2,0.5,0.1,0.6,0c-0.2,0.2,0.5,0.6,0.9,0.3c-0.1,0.2,0.3,0.3,0.4,0.3c0.1,0.1,0.5,0.2,0.8,0V35c0,0.4,0.1,0.5,0.3,0.6
		c0.9,0.1,0.7-0.2,0.8-0.5c0-1-0.1-2.4-0.1-2.4c0.6-0.1,0.5-0.2,0.7-0.3c0.3,0,0.4,0,0.6-0.3c0.3,0,0.6-0.1,0.7-0.3
		c0.3,0.1,0.7-0.2,0.9-0.7c0.6,0.2,2.8,1.4,3.8,1.7C20.1,33.6,17.6,37.7,13.3,37.7 M20.4,35.3c0.1,0,0.2-0.1,0.4-0.1
		c-0.2,0.1-0.3,0.1-0.4,0.2C20.3,35.4,20.3,35.3,20.4,35.3 M19.3,36.3L19.3,36.3L19.3,36.3 M18.3,36.4c-0.1,0.4-0.1,0.7-0.2,0.9
		c-0.4,0.7-2.3,1.3-3,1.6c0.2-0.2,0.4-0.7,0-0.9H15C16.2,37.7,17.3,37.1,18.3,36.4C18.3,36.3,18.3,36.3,18.3,36.4 M19.2,37
		c-0.3-0.1-0.5,0.1-0.6,0.2c0.1-0.2,0.2-0.3,0.4-0.4c-0.1,0-0.3,0.1-0.4,0.2c0-0.1,0-0.3,0-0.6c0.1-0.4,0.3-0.5,0.5-0.8
		c0,0.4,0.1,0.8-0.1,1c0.4-0.2,1.2-0.4,1.4-0.3C19.9,36.7,19.9,37,19.2,37 M20.3,36.1c-0.4,0-0.4,0-0.5,0.1c0.1-0.1,0.3-0.2,0.5-0.3
		c-0.2,0-0.3,0.1-0.5,0.2c0-0.1-0.2-0.1-0.2-0.4c0-0.4,0.2-0.5,0.4-0.9c0,0.4,0.2,0.8,0.1,1c0.3-0.3,1.1-0.5,1.3-0.4
		C20.9,35.7,21,36,20.3,36.1 M21.1,34.9c-0.3-0.1-0.4,0-0.5,0.1c0.1-0.1,0.3-0.3,0.5-0.3c-0.2,0-0.3,0-0.5,0.1
		c0-0.1-0.2-0.1-0.2-0.5c0-0.4,0.2-0.5,0.4-0.9c0,0.4,0.2,0.8,0.1,1c0.3-0.3,1.1-0.5,1.2-0.4C21.7,34.5,21.7,34.8,21.1,34.9
		 M21.8,33.9c-0.4,0-0.4,0.1-0.5,0.1c0.1-0.2,0.2-0.3,0.4-0.4c-0.2,0-0.3,0.1-0.4,0.2c-0.1-0.1-0.2-0.1-0.3-0.4
		c-0.1-0.4,0.1-0.5,0.2-0.9c0.1,0.4,0.3,0.8,0.3,1c0.2-0.3,1-0.6,1.1-0.6C22.3,33.4,22.4,33.7,21.8,33.9 M22.6,32.5
		c-0.3,0-0.4,0.1-0.5,0.1c0.1-0.1,0.2-0.3,0.4-0.4c-0.2,0-0.3,0.1-0.4,0.2c0-0.1-0.2-0.1-0.2-0.5c-0.1-0.5,0.1-0.5,0.2-0.9
		c0.1,0.4,0.3,0.8,0.3,1.1c0.2-0.3,1-0.6,1.1-0.5C23.1,32,23.2,32.3,22.6,32.5 M23.1,31.4c-0.3,0-0.3,0.1-0.4,0.2
		c0.1-0.2,0.2-0.3,0.3-0.4c-0.1,0.1-0.3,0.1-0.4,0.3c-0.1-0.1-0.2-0.1-0.3-0.4c-0.2-0.4,0-0.6,0.1-1c0.2,0.4,0.4,0.8,0.4,1
		c0.2-0.3,0.8-0.7,1-0.7C23.5,30.8,23.7,31.1,23.1,31.4 M23.2,30.3c0.1-0.1,0.1-0.1,0.3-0.1C23.4,30.2,23.3,30.2,23.2,30.3
		 M23.7,29.8c-0.3,0-0.3,0.1-0.4,0.2c0.1-0.2,0.2-0.3,0.3-0.4c-0.1,0.1-0.3,0.1-0.4,0.2c-0.1-0.1-0.2-0.1-0.3-0.4
		c-0.2-0.5,0-0.6,0-1c0.2,0.4,0.4,0.8,0.4,1.1c0.2-0.4,0.8-0.8,1-0.7C24,29.2,24.2,29.5,23.7,29.8"/>
	<path class="st3" d="M10.1,10.8c0.4-0.2,0.5-0.3,0.5-0.3l-1.2-0.3l1.3-0.3c0,0,0-0.1-0.8-0.3c-0.1,0,0-0.2-0.6-0.3
		c0.2,0,0.2,0.1,0.6,0.1c0.3,0,0.5,0.1,0.9,0c0,0-0.7-0.6-1.2-0.8c0,0,0.8,0.2,1.5,0.4c0-0.1-0.5-0.5-0.9-0.9C9.9,8,9.9,7.9,9.8,7.8
		c0.4,0.1,0.4,0.2,0.5,0.4c0.2,0.1,0.6,0.3,0.8,0.3c-0.4-0.5-0.9-1.3-0.9-1.3l1.3,0.9c-0.1-0.3-0.3-0.6-0.3-0.7
		c-0.2-0.5-0.1-0.5-0.2-0.7c0.3,0.5,0.5,0.8,1,1.1l-0.2-1.6l0.8,1.4c0.1-0.2,0-0.6,0-0.7c0.1-0.7,0.1-0.3,0-0.8
		c0.1,0.3,0.1,0.3,0.1,0.6c0.1,0.3,0.2,0.5,0.4,0.8L13.4,6c0,0,0.2,1.5,0.2,1.5c0.2-0.3,0.1-0.5,0.3-0.7c0.2-0.4,0.3-0.7,0.3-0.7
		c-0.1,0.6-0.1,0.4-0.2,0.7c0,0.3,0,0.8,0.1,0.8l0.9-1.3l-0.4,1.6c0.1,0,0.5-0.5,0.8-0.8c0.1-0.1,0.3-0.4,0.3-0.4
		c-0.2,0.3-0.3,0.5-0.4,0.7c-0.2,0.4-0.1,0.2-0.3,0.8l1.3-0.9l-0.9,1.3c0,0,0.1,0,0.7-0.3C16.6,8.2,16.9,8,17,7.9
		c-0.4,0.4-0.6,0.4-1.2,1.1l1.5-0.3c0,0-1.2,0.7-1.3,0.8c0.1,0.1,0.6-0.1,1,0c0.3,0,0.3,0,0.7,0c-0.4,0.1-0.5,0.1-0.9,0.2
		c-0.2,0.1-0.6,0.2-0.6,0.3l1.5,0.3c0,0-1.5,0.3-1.7,0.4c-0.1,0-0.2,0-0.3,0c-0.1,0-0.1,0-0.2,0c0.1-0.1,0.1-0.2,0.1-0.3
		c-0.5,0.1-1,0-1.4,0.1c0-0.1,0-0.2,0-0.3c-0.6,0.3-1.1,0.1-1.6,0.6c0-0.1,0-0.3-0.1-0.4c-0.5,0.3-1,0.1-1.4,0.4c0-0.1,0-0.2,0-0.3
		c-0.6,0.2-1,0.3-1.4,0.7c-0.1,0-0.2,0-0.3,0c0,0,0,0,0-0.1c0,0,0,0-0.1,0.1c-0.1,0-0.2,0-0.3,0C9.5,11,9.8,11,10.1,10.8"/>
	<path class="st2" d="M15.4,9.2l0.2,0c0,0-0.1-0.7-1.3-0.6h-0.3c0,0-0.1,0.4-0.1,0.4L14.6,9C14.6,9,15.2,8.9,15.4,9.2"/>
	<path class="st2" d="M14,9.7c0,0,0.2-0.2,0.2-0.2s0,0,0,0c0,0,0,0.1,0,0.1c0,0.1,0.1,0.2,0.2,0.3c0,0,0.2,0,0.2,0
		c0.1,0,0.2-0.2,0.2-0.3c0,0,0-0.1,0-0.1c0.1,0,0.2,0.1,0.3,0.2l0.3,0c0,0-0.1-0.7-1.3-0.5c0,0-0.3,0.4-0.3,0.5
		C13.8,9.7,14,9.7,14,9.7"/>
	<path class="st2" d="M11.4,9.7l0.3,0c0.1-0.1,0.2-0.2,0.3-0.2c0,0,0,0.1,0,0.1c0,0.1,0.1,0.3,0.2,0.3c0,0,0.2,0,0.2,0
		c0.1-0.1,0.2-0.2,0.2-0.3c0,0,0,0,0,0c0,0,0.1,0,0.1,0s0.2,0.2,0.2,0.2c0,0,0.3,0,0.3,0c0,0-0.3-0.4-0.3-0.4
		C11.5,9,11.4,9.7,11.4,9.7"/>
	<path class="st2" d="M12.1,8.9L12.9,9c0,0-0.1-0.4-0.1-0.4h-0.2c-1.3-0.1-1.4,0.6-1.4,0.6l0.2,0C11.5,8.9,12.1,8.9,12.1,8.9"/>
	<path class="st4" d="M24.4,27.4c-0.2,0.5,0,0.8-0.5,1.2c-0.3,0.1-0.3,0.2-0.4,0.3c0-0.2,0.1-0.4,0.2-0.5c-0.1,0.1-0.2,0.2-0.3,0.3
		c-0.1-0.1-0.2-0.1-0.4-0.4c-0.2-0.4-0.1-0.6-0.1-1c0.2,0.4,0.6,0.7,0.6,1C23.7,27.9,24.2,27.3,24.4,27.4"/>
	<path class="st4" d="M24.6,25.6c-0.2,0.5-0.1,0.8-0.6,1.3c-0.3,0.1-0.3,0.2-0.4,0.3c0.1-0.2,0.2-0.4,0.3-0.5
		c-0.1,0.1-0.3,0.2-0.4,0.4c-0.1,0-0.2,0-0.4-0.3c-0.2-0.4,0-0.6,0-1c0.2,0.3,0.5,0.6,0.6,0.8C23.9,26.3,24.4,25.6,24.6,25.6"/>
	<path class="st4" d="M23.7,25.2c0.1-0.4,0.6-1.1,0.8-1.1c-0.1,0.6,0.1,0.8-0.4,1.3c-0.3,0.2-0.3,0.3-0.4,0.4c0-0.2,0.1-0.4,0.2-0.6
		c-0.1,0.1-0.2,0.3-0.3,0.4c-0.1,0-0.2,0-0.4-0.2c-0.3-0.3-0.1-0.5-0.2-0.9C23.3,24.7,23.7,25,23.7,25.2"/>
	<path class="st4" d="M24.5,22.4c-0.1,0.5,0.1,0.8-0.4,1.3c-0.3,0.2-0.3,0.2-0.4,0.3c0-0.2,0.1-0.4,0.2-0.5
		c-0.1,0.1-0.2,0.2-0.3,0.4c-0.1,0-0.2,0-0.4-0.2c-0.3-0.3-0.1-0.5-0.2-0.9c0.3,0.3,0.7,0.5,0.7,0.7C23.8,23.1,24.3,22.4,24.5,22.4"
		/>
	<path class="st4" d="M23.6,22.3c0-0.4,0.4-1.1,0.6-1.1c0,0.6,0.2,0.7-0.1,1.3c-0.3,0.2-0.2,0.3-0.3,0.4c0-0.2,0-0.4,0.1-0.5
		c-0.1,0.1-0.2,0.3-0.2,0.4c-0.1,0-0.2,0-0.5-0.2c-0.3-0.3-0.2-0.5-0.4-0.9C23.1,21.9,23.5,22.1,23.6,22.3"/>
	<path class="st4" d="M9.5,12.3c0.1-0.1,0.2-0.1,0.2-0.4c0.2-0.7,0.6-0.6,1.1-0.9c0.2,0.2-0.4,1-0.8,1.2c0.2,0,0.6,0.3,0.9,0.4
		c-0.4,0-0.6,0.3-0.9,0.1c-0.3-0.1-0.3-0.2-0.3-0.3c0.1-0.1,0.2-0.3,0.3-0.4C9.8,12.1,9.6,12.2,9.5,12.3"/>
	<path class="st4" d="M16.2,12.1c-0.2,0-0.3,0-0.4-0.1c0.2-0.1,0.4-0.2,0.6-0.3c0.4,0.1,0.7,0.3,0.7,0.6c-0.3-0.1-0.4,0.1-0.9,0.2
		c-0.4,0.1-0.7-0.2-1.1-0.2C15.1,12.2,15,12.1,15,12c0.2,0,0.4,0,0.6,0l0,0.1C15.8,12.1,16,12.1,16.2,12.1"/>
	<path class="st4" d="M14.8,11.5c0.2,0,0.4-0.1,0.6-0.1c-0.1,0-0.3,0-0.4,0c0.3-0.2,0.4-0.4,0.8-0.4c0.5,0,0.5,0.3,0.8,0.1
		C16.6,11.4,15.2,12.1,14.8,11.5"/>
	<path class="st4" d="M14.1,11.4c0.2,0.1,0.5,0.5,0.7,0.8c-0.4-0.1-0.6,0-0.9-0.3c-0.3-0.2-0.2-0.3-0.2-0.4c0.1-0.1,0.3-0.2,0.4-0.3
		c-0.2,0.1-0.3,0.1-0.5,0.2c0.1-0.1,0.2,0,0.3-0.3c0.5-0.4,0.7-0.2,1.2-0.3C15.1,10.9,14.5,11.3,14.1,11.4"/>
	<path class="st4" d="M13,11.5c0.2,0,0.5,0.4,0.8,0.6c-0.4,0-0.6,0.1-0.9-0.1c-0.3-0.2-0.2-0.3-0.3-0.4c0.1-0.1,0.2-0.2,0.3-0.4
		c-0.1,0.1-0.3,0.2-0.5,0.3c0.1-0.1,0.2-0.1,0.3-0.4c0.4-0.5,0.6-0.3,1.1-0.5C13.8,10.8,13.3,11.4,13,11.5"/>
	<path class="st4" d="M12.2,12.2c-0.4,0-0.6,0.2-0.9,0C11,12.1,11,12,10.9,11.9c0.1-0.1,0.2-0.2,0.3-0.4c-0.1,0.1-0.3,0.2-0.5,0.3
		c0.1-0.1,0.2-0.1,0.3-0.4c0.4-0.5,0.6-0.4,1.1-0.7c0,0.2-0.5,0.8-0.9,1C11.5,11.7,11.9,12,12.2,12.2"/>
	<path class="st4" d="M23.8,19.5c0,0.6,0.2,0.8-0.1,1.3c-0.3,0.2-0.2,0.3-0.3,0.4c0-0.2,0-0.4,0.1-0.5c-0.1,0.1-0.2,0.3-0.2,0.4
		c-0.1,0-0.2,0-0.5-0.2c-0.4-0.3-0.2-0.5-0.4-0.9c0.3,0.3,0.8,0.4,0.9,0.7C23.2,20.2,23.6,19.6,23.8,19.5"/>
	<path class="st4" d="M22.9,19.5c-0.1-0.4,0.2-1.1,0.3-1.2c0.1,0.5,0.4,0.7,0.1,1.3c-0.2,0.2-0.2,0.3-0.2,0.4c0-0.2-0.1-0.4,0-0.5
		c-0.1,0.1-0.1,0.3-0.1,0.4c-0.1,0-0.2,0.1-0.5-0.1c-0.4-0.2-0.3-0.5-0.6-0.8C22.3,19.2,22.8,19.3,22.9,19.5"/>
	<path class="st4" d="M22.5,16.8c0.1,0.5,0.4,0.7,0.1,1.3c-0.2,0.2-0.2,0.3-0.2,0.4c0-0.2-0.1-0.4,0-0.5c-0.1,0.1-0.1,0.3-0.1,0.4
		c-0.1,0-0.2,0-0.5-0.2c-0.4-0.3-0.3-0.5-0.6-0.8c0.4,0.2,0.8,0.4,1,0.6C22.1,17.5,22.3,16.8,22.5,16.8"/>
	<path class="st4" d="M21.7,15.6c0.2,0.5,0.5,0.7,0.4,1.2c-0.2,0.2-0.1,0.3-0.1,0.4c-0.1-0.2-0.1-0.4-0.1-0.5c0,0.2-0.1,0.3-0.1,0.5
		c-0.1,0-0.2,0.1-0.5-0.1c-0.4-0.2-0.4-0.4-0.7-0.8c0.4,0.2,0.9,0.2,1.1,0.5C21.5,16.4,21.6,15.7,21.7,15.6"/>
	<path class="st4" d="M20.7,14.1c0.2,0.5,0.4,0.5,0.4,1.2c-0.1,0.3,0,0.4,0,0.5c-0.1-0.2-0.2-0.4-0.2-0.6c0,0.2,0,0.4,0,0.5
		c-0.1,0-0.2,0.1-0.5,0.1c-0.4-0.1-0.4-0.4-0.7-0.6c0.4,0.1,0.8,0,1,0.1C20.5,15,20.6,14.2,20.7,14.1"/>
	<path class="st4" d="M19.8,14.4c-0.2-0.3-0.3-1.1-0.1-1.2c0.3,0.5,0.5,0.4,0.5,1.1c-0.1,0.4,0,0.4,0,0.5c-0.1-0.2-0.2-0.3-0.3-0.5
		c0,0.2,0,0.3,0.1,0.5c-0.1,0-0.1,0.2-0.4,0.1c-0.4,0-0.5-0.3-0.8-0.5C19.2,14.4,19.6,14.3,19.8,14.4"/>
	<path class="st4" d="M18.4,12c0.3,0.5,0.6,0.4,0.7,1.1c-0.1,0.3,0,0.4,0,0.5c-0.1-0.2-0.2-0.3-0.3-0.5c0,0.2,0,0.3,0.1,0.5
		c-0.1,0-0.1,0.2-0.5,0.1c-0.4,0-0.5-0.2-0.8-0.4c0.4,0,0.8-0.2,1,0C18.4,13,18.3,12.2,18.4,12"/>
	<path class="st4" d="M18,12.1c-0.1,0.4,0.1,0.4,0.1,0.5c0,0-0.1,0-0.1,0c-0.1-0.1-0.3-0.3-0.3-0.4c0.1,0.3,0.1,0.4,0.2,0.5
		c0,0.1-0.1,0.1-0.3,0.1c-0.5,0-0.6-0.1-0.8-0.2c0.4-0.1,0.5-0.3,0.9-0.2c0,0,0,0,0-0.1h0c0,0,0,0,0,0c0-0.1-0.1-0.2-0.3-0.4
		c-0.2-0.3-0.3-0.6-0.2-0.7C17.5,11.7,17.8,11.5,18,12.1"/>
	<path class="st4" d="M8.3,12.6c0.2-0.6,0.5-0.5,0.9-0.9c0.1,0.2-0.2,0.9-0.5,1.1c0.2-0.1,0.6,0.1,1,0.2c-0.4,0.1-0.5,0.3-0.9,0.3
		c-0.3,0-0.4-0.2-0.4-0.2c0.1-0.1,0.1-0.3,0.2-0.4c-0.1,0.2-0.2,0.3-0.4,0.4C8.2,13,8.3,12.9,8.3,12.6"/>
	<path class="st4" d="M7.4,13.4c0.1-0.6,0.4-0.6,0.7-1.1c0.1,0.2-0.1,0.9-0.3,1.3c0.2-0.1,0.6,0,1,0.1C8.4,13.8,8.4,14,8,14
		c-0.3,0-0.4-0.1-0.5-0.1c0.1-0.1,0.1-0.3,0.1-0.5c0,0.2-0.2,0.3-0.3,0.5C7.4,13.7,7.5,13.7,7.4,13.4"/>
	<path class="st4" d="M6.3,14.3c0.1-0.7,0.2-0.6,0.5-1.1c0.1,0.2,0.1,0.9-0.1,1.2c0.2-0.1,0.6,0,1,0c-0.3,0.2-0.4,0.5-0.8,0.5
		c-0.3,0-0.4-0.1-0.4-0.1c0.1-0.2,0.1-0.3,0.1-0.5c0,0.2-0.1,0.4-0.3,0.5C6.3,14.6,6.4,14.6,6.3,14.3"/>
	<path class="st4" d="M5.8,14.2c0.1,0.2,0.1,0.9,0,1.3c0.2-0.1,0.6-0.1,1-0.1c-0.3,0.2-0.3,0.5-0.7,0.6c-0.3,0.1-0.4-0.1-0.4-0.1
		c0.1-0.2,0.1-0.3,0-0.5c0,0.2-0.1,0.4-0.2,0.5c0-0.1,0.1-0.2,0-0.5C5.4,14.7,5.6,14.7,5.8,14.2"/>
	<path class="st4" d="M4.8,15.7c0.2,0.1,0.3,0.8,0.1,1.1c0.2-0.2,0.7-0.3,1.1-0.4c-0.3,0.3-0.3,0.5-0.7,0.7
		c-0.3,0.2-0.4,0.1-0.5,0.1c0-0.2,0-0.3-0.1-0.5c0,0.2,0,0.4-0.1,0.5c0-0.1,0.1-0.2-0.1-0.4C4.3,16.4,4.6,16.2,4.8,15.7"/>
	<path class="st4" d="M3.9,18.1c-0.3-0.5,0.1-0.7,0.1-1.2c0.2,0.1,0.4,0.7,0.4,1.1c0.1-0.2,0.6-0.4,1-0.6c-0.2,0.3-0.2,0.5-0.6,0.8
		c-0.3,0.2-0.4,0.1-0.5,0.2c0-0.2-0.1-0.3-0.2-0.4c0,0.2,0,0.3,0,0.5C4.1,18.4,4.2,18.3,3.9,18.1"/>
	<path class="st4" d="M3.4,18.4c0.2,0.1,0.4,0.7,0.3,1.1c0.2-0.2,0.6-0.3,1-0.5c-0.3,0.3-0.2,0.5-0.6,0.8c-0.3,0.2-0.4,0.1-0.5,0.1
		c0-0.2-0.1-0.3-0.1-0.4c0,0.2,0,0.3,0,0.5c0-0.1,0-0.2-0.2-0.4C3,19.1,3.3,18.9,3.4,18.4"/>
	<path class="st4" d="M3,20.8c-0.4-0.5-0.1-0.7-0.1-1.2c0.2,0,0.5,0.7,0.5,1.1C3.5,20.4,4,20.2,4.3,20c-0.2,0.4-0.1,0.6-0.4,0.9
		C3.6,21.1,3.5,21,3.4,21c0-0.1-0.1-0.3-0.2-0.4c0.1,0.2,0.1,0.3,0.1,0.5C3.2,21.1,3.3,21,3,20.8"/>
	<path class="st4" d="M2.5,21.2c0.2,0,0.5,0.7,0.5,1.1c0.1-0.2,0.5-0.4,0.9-0.6c-0.2,0.4-0.1,0.6-0.4,0.9c-0.3,0.2-0.4,0.1-0.5,0.2
		c0-0.2-0.1-0.3-0.2-0.4c0.1,0.2,0.1,0.4,0.1,0.5c-0.1-0.1,0-0.2-0.3-0.4C2.2,21.9,2.5,21.7,2.5,21.2"/>
	<path class="st4" d="M3,23.8c-0.1-0.2-0.2-0.3-0.3-0.4c0.1,0.1,0.2,0.3,0.2,0.5c-0.1-0.1,0-0.2-0.3-0.3c-0.5-0.5-0.3-0.6-0.4-1.1
		c0.2,0,0.7,0.6,0.8,0.9C3,23.2,3.4,23,3.6,22.7c-0.1,0.4,0.1,0.6-0.2,0.9C3.2,23.8,3.1,23.8,3,23.8"/>
	<path class="st4" d="M2.1,24.1c0.2,0,0.7,0.6,0.8,1c0.1-0.2,0.4-0.4,0.7-0.7c-0.1,0.4,0.1,0.6-0.2,0.9c-0.2,0.3-0.3,0.2-0.4,0.2
		c-0.1-0.2-0.2-0.3-0.3-0.4c0.1,0.1,0.2,0.3,0.2,0.5c-0.1-0.1,0-0.2-0.4-0.4C2.1,24.8,2.3,24.7,2.1,24.1"/>
	<path class="st4" d="M2.1,25.7c0.2,0,0.7,0.5,0.9,0.9c0-0.2,0.4-0.5,0.5-0.8c0,0.4,0.2,0.6,0,1C3.3,27,3.2,26.9,3.1,27
		c-0.1-0.1-0.2-0.3-0.4-0.4C2.9,26.7,3,26.9,3,27.1C2.9,27,3,26.9,2.6,26.8C1.8,26.1,2.7,27,2.1,25.7"/>
	<path class="st4" d="M3.1,28.1c0-0.2,0.4-0.6,0.6-1c0,0.4,0.1,0.6-0.1,1c-0.2,0.3-0.3,0.3-0.4,0.4c-0.1-0.1-0.2-0.2-0.3-0.3
		C3,28.3,3,28.5,3.1,28.7C3,28.6,3,28.5,2.7,28.4c-0.5-0.3-0.2-0.5-0.4-1C2.5,27.3,3,27.8,3.1,28.1"/>
	<path class="st4" d="M2.4,28.6c0.2-0.1,0.8,0.4,0.9,0.7c0-0.3,0.3-0.7,0.4-1c0,0.4,0.2,0.6,0,1c-0.1,0.3-0.2,0.3-0.3,0.4
		c-0.1-0.1-0.2-0.2-0.4-0.3c0.1,0.1,0.2,0.3,0.3,0.4c-0.1-0.1-0.1-0.2-0.4-0.2C2.5,29.4,2.6,29,2.4,28.6"/>
	<path class="st4" d="M3.9,30.8c0-0.2,0.3-0.6,0.4-1c0,0.4,0.2,0.5,0.1,1c-0.1,0.3-0.2,0.3-0.3,0.4c-0.1-0.1-0.2-0.2-0.4-0.3
		C3.8,31,3.9,31.2,4,31.4c-0.1-0.1-0.1-0.2-0.4-0.2c-0.5-0.3-0.4-0.6-0.7-1C3.1,30.1,3.7,30.5,3.9,30.8"/>
	<path class="st4" d="M3.2,31.4c0.2-0.1,0.9,0.2,1.1,0.5c-0.1-0.2,0.2-0.6,0.2-1.1c0.1,0.4,0.3,0.5,0.2,0.9
		c-0.1,0.3-0.2,0.4-0.2,0.4c-0.1-0.1-0.3-0.1-0.4-0.2c0.2,0.1,0.3,0.2,0.4,0.4c-0.1,0-0.1-0.1-0.5-0.1C3.5,32.1,3.6,31.8,3.2,31.4"
		/>
	<path class="st4" d="M3.9,32.8C4.1,32.7,4.8,33,5,33.3c0-0.2,0.2-0.6,0.3-1c0.1,0.4,0.3,0.5,0.2,0.9c-0.1,0.3-0.2,0.3-0.2,0.4
		c-0.1-0.1-0.3-0.2-0.4-0.2c0.2,0.1,0.3,0.2,0.4,0.4c-0.1-0.1-0.1-0.1-0.5-0.1C4.1,33.5,4.3,33.2,3.9,32.8"/>
	<path class="st4" d="M4.4,33.9c0.2-0.1,0.9,0.1,1.2,0.4c-0.1-0.2,0.1-0.6,0.1-1c0.2,0.4,0.4,0.4,0.4,0.9c0,0.3-0.1,0.3-0.2,0.4
		c-0.1-0.1-0.3-0.1-0.5-0.1c0.2,0.1,0.3,0.2,0.5,0.3c-0.1,0-0.2-0.1-0.5-0.1C4.8,34.6,4.9,34.2,4.4,33.9"/>
	<path class="st4" d="M5.2,35.1c0.2-0.1,1,0.2,1.2,0.5c-0.1-0.2,0.1-0.6,0.1-1c0.1,0.4,0.4,0.5,0.3,0.9c0,0.3-0.1,0.3-0.2,0.4
		c-0.1-0.1-0.3-0.1-0.5-0.2c0.2,0.1,0.3,0.2,0.5,0.3c-0.1,0-0.1-0.1-0.5-0.1C5.5,35.8,5.6,35.5,5.2,35.1"/>
	<path class="st4" d="M8,37.1c-0.1-0.1-0.3-0.2-0.5-0.2c-0.7-0.1-0.9-0.5-1.4-0.8c0.2-0.1,1,0.1,1.3,0.3c-0.1-0.2,0-0.6,0-1
		c0.2,0.3,0.5,0.4,0.5,0.8c0.1,0.3,0,0.5,0.1,0.7c-0.1-0.1-0.2-0.2-0.4-0.3C7.8,36.8,7.9,37,8,37.1"/>
	<path class="st4" d="M19.2,37c-0.3-0.1-0.5,0.1-0.6,0.2c0.1-0.2,0.2-0.3,0.4-0.4c-0.1,0-0.3,0.1-0.4,0.2c0-0.1,0-0.3,0-0.6
		c0.1-0.4,0.3-0.5,0.5-0.8c0,0.4,0.1,0.8-0.1,1c0.3-0.2,1.2-0.4,1.4-0.3C19.9,36.7,19.9,37,19.2,37"/>
	<path class="st4" d="M20.3,36.1c-0.3,0-0.4,0.1-0.5,0.1c0.1-0.1,0.3-0.2,0.5-0.3c-0.2,0-0.3,0.1-0.5,0.2c0-0.1-0.2-0.1-0.2-0.4
		c0-0.4,0.2-0.5,0.4-0.9c0,0.4,0.2,0.8,0.1,1c0.3-0.3,1.1-0.5,1.3-0.4C20.9,35.7,21,36,20.3,36.1"/>
	<path class="st4" d="M21.1,34.9c-0.3-0.1-0.4,0-0.5,0.1c0.1-0.1,0.3-0.3,0.5-0.3c-0.2,0-0.3,0.1-0.5,0.1c0-0.1-0.2-0.1-0.2-0.4
		c0-0.4,0.2-0.5,0.4-0.9c0,0.4,0.2,0.8,0.1,1c0.3-0.3,1.1-0.5,1.2-0.4C21.7,34.5,21.7,34.8,21.1,34.9"/>
	<path class="st4" d="M21.8,33.9c-0.3,0-0.4,0.1-0.5,0.1c0.1-0.2,0.2-0.3,0.4-0.4c-0.2,0-0.3,0.1-0.4,0.2c0-0.1-0.2-0.1-0.3-0.4
		c-0.1-0.4,0.1-0.5,0.2-0.9c0.1,0.4,0.3,0.8,0.3,1c0.2-0.3,0.9-0.7,1.1-0.6C22.3,33.4,22.4,33.7,21.8,33.9"/>
	<path class="st4" d="M22.6,32.5c-0.3,0-0.3,0-0.5,0.1c0.1-0.1,0.3-0.3,0.4-0.4c-0.2,0-0.3,0.1-0.4,0.2c-0.1-0.1-0.2-0.1-0.2-0.5
		c-0.1-0.4,0.1-0.5,0.2-0.9c0.1,0.4,0.3,0.8,0.3,1.1c0.2-0.3,1-0.6,1.1-0.5C23.1,32,23.2,32.3,22.6,32.5"/>
	<path class="st4" d="M23.1,31.4c-0.3,0-0.3,0.1-0.4,0.2c0.1-0.2,0.2-0.3,0.3-0.4c-0.1,0.1-0.3,0.1-0.4,0.3
		c-0.1-0.1-0.2-0.1-0.3-0.4c-0.2-0.4,0-0.6,0.1-1c0.2,0.4,0.4,0.8,0.4,1c0.2-0.3,0.8-0.7,1-0.7C23.5,30.8,23.7,31.1,23.1,31.4"/>
	<path class="st4" d="M23.7,29.8c-0.3,0-0.3,0.1-0.4,0.2c0.1-0.2,0.2-0.3,0.3-0.4c-0.2,0.1-0.3,0.1-0.4,0.3
		c-0.1-0.1-0.2-0.1-0.3-0.4c-0.2-0.5,0-0.6,0-1c0.2,0.4,0.4,0.8,0.4,1.1c0.2-0.3,0.8-0.8,1-0.7C24,29.2,24.2,29.5,23.7,29.8"/>
	<path class="st5" d="M21.1,31.9c0,0-1.7,0.3-3.7-1.1c0.2-0.2,0.2-0.8,0.2-1.1c0-0.3-0.1,0-0.1,0.1c-0.2,0.5-0.4,0.5-0.6,0.7
		c-0.6-0.6-0.7-0.6-1.5-1.1c-0.6-0.3-0.6-0.5-0.9-0.7c-0.5,0.3-1.4,0.7-1.8,0.5c-0.4-0.2,0.4-0.4,0.7-0.9c0.3-0.4,0.6-0.5,1-0.4
		c0.8,0.2,1.3,0.5,2.5,1c1.5,0.1,2.7,0.6,4.2,0.9c0.3,0.1,0.6,0.1,0.8,0.1C21.7,30.6,21.5,31.1,21.1,31.9"/>
	<path class="st5" d="M14.3,30.2c0.5,0.5,0.9,0.6,1.2,1.2c-0.1,0.2-0.3,0.2-0.5,0.1c-0.7-0.8-1.3-0.9-1.1-1.3
		c-0.1,0-0.3,0.2-0.2,0.3c0.1,0.5,0.7,0.8,0.9,1.2c-0.1,0.4-0.8,0-1.2-0.9l0,0c-0.1,0.3-0.3,0.4,0.2,1c0.1,0.2,0.2,0.4-0.2,0.4
		c0.1,0.1-0.2,0-0.1,0h0.1c0,0,0,0-0.1,0c0.2-1-0.7-0.8-0.7-0.8c0.1-0.3-0.4-0.7-0.9-0.5c0.1-0.3-0.5-0.7-1.2-0.4
		c-0.1-0.3-0.8-0.5-1.4,0.3c-1.1,0.1-2.9,1.1-4,0.6c0,0-0.7-1.8-0.7-1.8c1.3-0.1,4.2-0.3,5.2-0.8c0.8-0.5,2.3-0.8,2.7-0.6
		c0,0.3-0.7,0.8-0.4,1.1c0.6,0.5,1.5,0.3,2.1-0.1c0.6,0.7,1.7,0.8,2.1,1.6l-0.1,0.3c-0.2,0.1-0.2,0.1-0.5-0.2
		c-0.6-0.8-1.2-0.6-1.3-1.2C14.2,29.8,14.3,30.1,14.3,30.2"/>
	<path class="st5" d="M11.4,31.9c-0.2,0.1,0.1-0.1,0.2-0.2l0.1-0.1c0.2-0.2,0.5-0.4,0.6,0c0.1,0.2-0.7,0.6-0.8,0.7
		c-0.1,0-0.1,0-0.2-0.1C11.2,32,11.3,31.9,11.4,31.9"/>
	<path class="st5" d="M10.7,31.8c-0.1,0-0.2,0.1-0.3-0.1c-0.1-0.1,0.2-0.4,0.3-0.5c0.1-0.1,0.2-0.1,0.2-0.1L11,31
		c0.3,0,0.3,0,0.3,0.1C11.4,31.2,10.8,31.8,10.7,31.8"/>
	<path class="st5" d="M12.6,31.9c0,0,0.3-0.3,0.4,0.1c0,0.2-0.3,0.4-0.6,0.5C12.2,32.4,11.9,32.4,12.6,31.9"/>
	<path class="st5" d="M9.9,31.3c-0.1,0.1-0.3-0.2-0.2-0.2l0.1-0.2c0.2-0.1,0.3-0.2,0.4-0.1C10.3,30.9,10.1,31.2,9.9,31.3"/>
	<path class="st6" d="M13.3,12.6c-5,0-9.2,5.3-9.3,12h18.7C22.5,18,18.4,12.6,13.3,12.6"/>
	<path class="st2" d="M13.8,27.4l0-5.3c0,0,1.8,0,2.2,0c0,0,0.7-0.3,0.8-0.8c0.1-0.4-0.2-1.6-0.3-1.8c0,0-0.3-0.2-0.4-0.5
		c0,0-0.2-2-0.6-2.6c-0.4-0.6-1-1.2-2.4-1.2c-1.4,0-2,0.9-2.1,1.5c-0.1,0.8,0.7,0.8,0.7,0.8s-0.4,0.3-0.5,0.5
		c-0.1,0.2-0.5,0.5-0.8,1.2c-0.4,0.7-0.6,1.8-0.5,2.1c0.2,0.4,0.8,0.8,1.5,0.9c0.7,0.1,1.2,0,1.2,0v5.3L13.8,27.4z"/>
	<path class="st7" d="M11.9,20.1c-0.5,0-0.8,0.3-1.2,0.3c0,0,0.1-1,1.1-2.2c0.4-0.4,1.3-1,1.8-1.2l0-0.1c-0.4,0.1-1.5,0.3-1.9-0.2
		c-0.1-0.5,0.6-1,1.5-1.1c0.6,0,1,0.2,1.4,0.4c0.5,0.4,0.7,0.9,0.8,1.5c-0.6,0.3-0.8,0.4-0.9,0.4c0.1,0,0.2,0,0.4,0
		c0.2,0,0.4,0,0.5,0v0.4c0.1,0,0.1,0.1,0.1,0.1c-1.1,0.5-1.7,0.7-1.8,0.6c0,0,0.2,0,0.5,0.1c0.4,0,0.9-0.2,1.3-0.3
		c0,0.2,0,0.4,0.3,0.5l0,0l0,0c-1.1,0.6-1.6,0.6-1.7,0.5l-0.8-0.2c0.2,0.1,0.6,0.5,1.1,0.5c0.4,0.1,1.1-0.3,1.6-0.4l0.1,0.5
		c-0.7,0-1.4,1-2.5,0.6C13.3,20.8,12.6,20.1,11.9,20.1"/>
	<path class="st7" d="M12.8,21.5c-0.5,0-1.3,0-1.4,0c-0.3-0.1-0.9-0.4-0.8-0.5c0,0,0.2,0,0.9-0.2C12.2,20.5,12.8,21.4,12.8,21.5"/>
	<path class="st7" d="M16.3,21c0,0.2-0.2,0.5-0.4,0.5c-0.1,0-0.8,0-1.2,0c0.3,0,0.4-0.1,0.6-0.2C16.5,20.8,16.3,21,16.3,21"/>
	<path class="st1" d="M12.8,40.6c0.1-0.2,0-0.4,0-0.4s-0.4,0.5-0.9,0.8c-0.5,0.3-1.2,0.4-1.4,0.5c0.1,0.1,0.2,0.2,0.3,0.3
		c0.1,0,0.7-0.1,1.3-0.4C12.5,41.1,12.8,40.6,12.8,40.6"/>
	<path class="st6" d="M13.9,40.6c-0.1-0.2,0-0.4,0-0.4s0.4,0.5,0.9,0.8c0.4,0.3,1.2,0.4,1.4,0.5c0.2-0.2,0.4-0.4,0.4-0.4
		s-0.7-0.1-1.4-0.3c-0.7-0.2-1-0.6-1-0.8c-0.1-0.1,0.1-0.4,0.2-0.5c0.1-0.1,1.2-0.2,1.2-1.1c0-1.1-1.9-0.8-2.1-0.8
		c-0.2,0-2.1-0.4-2.1,0.8c0,1,1.1,1,1.2,1.1c0.1,0.1,0.2,0.4,0.2,0.5c-0.1,0.1-0.4,0.6-1,0.8c-0.7,0.2-1.4,0.3-1.4,0.3
		s0.1,0.2,0.4,0.4c0.1,0,0.9-0.2,1.4-0.5c0.5-0.3,0.9-0.8,0.9-0.8s0.1,0.2,0,0.4c0,0-0.3,0.5-0.6,0.8c-0.6,0.4-1.2,0.4-1.3,0.4
		c0.2,0.1,0.4,0.2,0.6,0.2c1.2,0,1.6-1.4,1.6-1.4s0.1,0.1,0.3,0.1h0h0c0.2,0,0.3-0.1,0.3-0.1s0.5,1.3,1.6,1.4c0.2,0,0.4-0.1,0.5-0.2
		c-0.1,0-0.7-0.1-1.3-0.4C14.2,41.1,13.9,40.6,13.9,40.6"/>
	<path class="st1" d="M16.2,41.5c-0.2,0-0.9-0.2-1.4-0.5c-0.5-0.3-0.9-0.8-0.9-0.8s-0.1,0.2,0,0.4c0,0,0.3,0.5,0.6,0.8
		c0.6,0.3,1.1,0.4,1.3,0.4h0C16,41.7,16.1,41.6,16.2,41.5"/>
	<path class="st1" d="M12.5,38c0,0-0.3,0.2-0.3,0.5c0,0.3,0.1,0.5,0.1,0.5s-0.6-0.2-0.6-0.6C11.7,37.8,12.5,38,12.5,38"/>
	<path class="st1" d="M14.2,38c0,0,0.3,0.2,0.3,0.5c0,0.3-0.1,0.5-0.1,0.5s0.6-0.2,0.6-0.6C15,37.8,14.2,38,14.2,38"/>
	<path class="st1" d="M13.4,38.2L13.4,38.2c-1.1,0-0.5,1-0.5,1S13,39,13.3,39h0.1c0.3,0,0.4,0.1,0.4,0.1S14.4,38.2,13.4,38.2"/>
	<path class="st1" d="M13.4,39.5L13.4,39.5L13.4,39.5h-0.1c-0.3,0-0.3,0.1-0.3,0.3c0,0.1,0.1,0.7,0.3,0.7h0h0c0.2,0,0.3-0.6,0.3-0.7
		C13.6,39.6,13.7,39.5,13.4,39.5"/>
</g>
<g>
	<path class="st8" d="M34.3,26.4h3.9c0.6,0,1.1,0.1,1.6,0.2c0.5,0.2,0.9,0.4,1.2,0.7c0.3,0.3,0.6,0.6,0.8,1s0.3,0.9,0.3,1.4v0
		c0,0.6-0.1,1-0.3,1.5c-0.2,0.4-0.5,0.8-0.9,1.1c-0.4,0.3-0.8,0.5-1.3,0.6c-0.5,0.1-1,0.2-1.5,0.2h-2v3.2h-1.7V26.4z M38.1,31.6
		c0.7,0,1.2-0.2,1.6-0.5c0.4-0.3,0.6-0.8,0.6-1.3v0c0-0.6-0.2-1-0.6-1.3S38.8,28,38.1,28h-2v3.6H38.1z"/>
	<path class="st8" d="M43.6,28.9h1.7v1.7c0.2-0.6,0.6-1,1-1.4c0.4-0.3,1-0.5,1.6-0.5v1.8h-0.1c-0.4,0-0.7,0.1-1,0.2
		c-0.3,0.1-0.6,0.3-0.8,0.6c-0.2,0.2-0.4,0.6-0.5,0.9c-0.1,0.4-0.2,0.8-0.2,1.3v2.8h-1.7V28.9z"/>
	<path class="st8" d="M52.9,36.5c-0.5,0-1-0.1-1.5-0.3s-0.9-0.5-1.2-0.8c-0.3-0.3-0.6-0.7-0.8-1.2c-0.2-0.5-0.3-1-0.3-1.6v0
		c0-0.5,0.1-1,0.3-1.5c0.2-0.5,0.4-0.9,0.8-1.2c0.3-0.4,0.7-0.6,1.2-0.8c0.4-0.2,0.9-0.3,1.5-0.3c0.6,0,1.1,0.1,1.6,0.3
		c0.4,0.2,0.8,0.5,1.1,0.9c0.3,0.4,0.5,0.8,0.7,1.3c0.2,0.5,0.2,1,0.2,1.5c0,0.1,0,0.2,0,0.2c0,0.1,0,0.2,0,0.2h-5.5
		c0.1,0.6,0.3,1.1,0.7,1.4c0.4,0.3,0.9,0.5,1.4,0.5c0.4,0,0.8-0.1,1.1-0.2c0.3-0.2,0.6-0.4,0.9-0.7l1,0.9c-0.4,0.4-0.8,0.8-1.3,1
		C54.2,36.4,53.6,36.5,52.9,36.5z M54.6,32.1c0-0.3-0.1-0.5-0.2-0.8c-0.1-0.2-0.2-0.4-0.4-0.6c-0.2-0.2-0.4-0.3-0.6-0.4
		c-0.2-0.1-0.5-0.2-0.8-0.2c-0.5,0-1,0.2-1.3,0.5c-0.3,0.4-0.6,0.8-0.6,1.4H54.6z"/>
	<path class="st8" d="M60.6,36.5c-0.5,0-1.1-0.1-1.6-0.3c-0.6-0.2-1.1-0.5-1.5-0.8l0.8-1.2c0.4,0.3,0.8,0.5,1.2,0.7
		c0.4,0.2,0.8,0.2,1.2,0.2c0.4,0,0.7-0.1,0.9-0.2c0.2-0.1,0.3-0.3,0.3-0.6v0c0-0.1,0-0.3-0.1-0.4c-0.1-0.1-0.2-0.2-0.4-0.3
		c-0.2-0.1-0.3-0.1-0.5-0.2c-0.2-0.1-0.4-0.1-0.6-0.2c-0.3-0.1-0.5-0.2-0.8-0.3c-0.3-0.1-0.5-0.2-0.8-0.4c-0.2-0.2-0.4-0.4-0.5-0.6
		s-0.2-0.5-0.2-0.9v0c0-0.3,0.1-0.7,0.2-0.9c0.1-0.3,0.3-0.5,0.6-0.7c0.2-0.2,0.5-0.3,0.9-0.5c0.3-0.1,0.7-0.2,1-0.2
		c0.5,0,0.9,0.1,1.4,0.2c0.5,0.2,0.9,0.4,1.3,0.6l-0.7,1.2c-0.4-0.2-0.7-0.4-1.1-0.5s-0.7-0.2-1-0.2c-0.3,0-0.6,0.1-0.8,0.2
		c-0.2,0.1-0.3,0.3-0.3,0.5v0c0,0.1,0,0.2,0.1,0.3c0.1,0.1,0.2,0.2,0.4,0.3c0.2,0.1,0.3,0.2,0.5,0.2s0.4,0.1,0.6,0.2
		c0.3,0.1,0.5,0.2,0.8,0.3c0.3,0.1,0.5,0.3,0.7,0.4c0.2,0.2,0.4,0.4,0.5,0.6c0.1,0.2,0.2,0.5,0.2,0.9v0c0,0.4-0.1,0.7-0.2,1
		c-0.1,0.3-0.3,0.5-0.6,0.7c-0.3,0.2-0.5,0.3-0.9,0.4C61.3,36.5,61,36.5,60.6,36.5z"/>
	<path class="st8" d="M65.1,26.1H67v1.6h-1.9V26.1z M65.2,28.9h1.7v7.5h-1.7V28.9z"/>
	<path class="st8" d="M72.3,36.5c-0.4,0-0.9-0.1-1.3-0.3c-0.4-0.2-0.8-0.4-1.1-0.8s-0.6-0.7-0.8-1.2s-0.3-1-0.3-1.7v0
		c0-0.6,0.1-1.2,0.3-1.7c0.2-0.5,0.4-0.9,0.8-1.2c0.3-0.3,0.7-0.6,1.1-0.8c0.4-0.2,0.9-0.3,1.3-0.3c0.6,0,1.1,0.1,1.5,0.4
		c0.4,0.3,0.7,0.6,1,0.9v-4h1.7v10.3h-1.7l0-1.2c-0.3,0.4-0.6,0.7-1,1S72.9,36.5,72.3,36.5z M72.7,35c0.3,0,0.6-0.1,0.8-0.2
		s0.5-0.3,0.7-0.5c0.2-0.2,0.4-0.5,0.5-0.8c0.1-0.3,0.2-0.6,0.2-1v0c0-0.4-0.1-0.7-0.2-1c-0.1-0.3-0.3-0.6-0.5-0.8
		c-0.2-0.2-0.4-0.4-0.7-0.5c-0.3-0.1-0.5-0.2-0.8-0.2c-0.3,0-0.6,0.1-0.8,0.2c-0.3,0.1-0.5,0.3-0.7,0.5c-0.2,0.2-0.4,0.5-0.5,0.8
		c-0.1,0.3-0.2,0.6-0.2,1v0c0,0.4,0.1,0.7,0.2,1c0.1,0.3,0.3,0.6,0.5,0.8c0.2,0.2,0.4,0.4,0.7,0.5C72.1,35,72.4,35,72.7,35z"/>
	<path class="st8" d="M82.1,36.5c-0.5,0-1-0.1-1.5-0.3s-0.9-0.5-1.2-0.8c-0.3-0.3-0.6-0.7-0.8-1.2c-0.2-0.5-0.3-1-0.3-1.6v0
		c0-0.5,0.1-1,0.3-1.5c0.2-0.5,0.4-0.9,0.8-1.2c0.3-0.4,0.7-0.6,1.2-0.8c0.4-0.2,0.9-0.3,1.5-0.3c0.6,0,1.1,0.1,1.6,0.3
		c0.4,0.2,0.8,0.5,1.1,0.9c0.3,0.4,0.5,0.8,0.7,1.3c0.2,0.5,0.2,1,0.2,1.5c0,0.1,0,0.2,0,0.2c0,0.1,0,0.2,0,0.2H80
		c0.1,0.6,0.3,1.1,0.7,1.4c0.4,0.3,0.9,0.5,1.4,0.5c0.4,0,0.8-0.1,1.1-0.2c0.3-0.2,0.6-0.4,0.9-0.7l1,0.9c-0.4,0.4-0.8,0.8-1.3,1
		C83.4,36.4,82.8,36.5,82.1,36.5z M83.8,32.1c0-0.3-0.1-0.5-0.2-0.8c-0.1-0.2-0.2-0.4-0.4-0.6c-0.2-0.2-0.4-0.3-0.6-0.4
		c-0.2-0.1-0.5-0.2-0.8-0.2c-0.5,0-1,0.2-1.3,0.5c-0.3,0.4-0.6,0.8-0.6,1.4H83.8z"/>
	<path class="st8" d="M87.2,28.9h1.7V30c0.1-0.2,0.3-0.4,0.4-0.5c0.1-0.2,0.3-0.3,0.5-0.4c0.2-0.1,0.4-0.2,0.6-0.3
		c0.2-0.1,0.5-0.1,0.8-0.1c0.8,0,1.5,0.3,2,0.8c0.5,0.5,0.7,1.2,0.7,2.1v4.8h-1.7v-4.2c0-0.6-0.1-1-0.4-1.4
		c-0.3-0.3-0.7-0.5-1.2-0.5c-0.5,0-0.9,0.2-1.2,0.5c-0.3,0.3-0.5,0.8-0.5,1.4v4.2h-1.7V28.9z"/>
	<path class="st8" d="M99.5,36.5c-0.6,0-1.1-0.1-1.5-0.3s-0.9-0.5-1.2-0.8s-0.6-0.8-0.8-1.2s-0.3-1-0.3-1.5v0c0-0.5,0.1-1,0.3-1.5
		s0.5-0.9,0.8-1.2c0.3-0.4,0.8-0.6,1.2-0.8c0.5-0.2,1-0.3,1.6-0.3c0.7,0,1.3,0.1,1.8,0.4c0.5,0.2,0.9,0.5,1.2,0.9l-1.1,1.1
		c-0.3-0.3-0.5-0.5-0.8-0.7c-0.3-0.2-0.7-0.3-1.1-0.3c-0.3,0-0.6,0.1-0.9,0.2c-0.3,0.1-0.5,0.3-0.7,0.5c-0.2,0.2-0.3,0.5-0.4,0.8
		c-0.1,0.3-0.2,0.6-0.2,0.9v0c0,0.3,0.1,0.6,0.2,0.9c0.1,0.3,0.3,0.5,0.5,0.8s0.4,0.4,0.7,0.5c0.3,0.1,0.6,0.2,0.9,0.2
		c0.4,0,0.8-0.1,1.1-0.3c0.3-0.2,0.6-0.4,0.9-0.7l1,1c-0.4,0.4-0.8,0.8-1.3,1C100.8,36.4,100.2,36.5,99.5,36.5z"/>
	<path class="st8" d="M104.1,26.1h1.9v1.6h-1.9V26.1z M104.2,28.9h1.7v7.5h-1.7V28.9z"/>
	<path class="st8" d="M112.7,36.4v-0.9c-0.3,0.3-0.6,0.6-1,0.8c-0.4,0.2-0.9,0.3-1.4,0.3c-0.4,0-0.7,0-1-0.1
		c-0.3-0.1-0.6-0.2-0.8-0.4c-0.2-0.2-0.4-0.4-0.6-0.7s-0.2-0.6-0.2-1v0c0-0.4,0.1-0.8,0.2-1.1c0.2-0.3,0.4-0.6,0.6-0.8
		c0.3-0.2,0.6-0.4,1-0.5s0.8-0.1,1.2-0.1c0.5,0,0.8,0,1.2,0.1c0.3,0.1,0.6,0.1,0.9,0.2v-0.1c0-0.5-0.2-0.9-0.5-1.2s-0.8-0.4-1.4-0.4
		c-0.4,0-0.8,0-1.1,0.1c-0.3,0.1-0.7,0.2-1,0.3l-0.5-1.4c0.4-0.2,0.8-0.3,1.3-0.5s1-0.2,1.6-0.2c1.1,0,1.9,0.3,2.5,0.8
		c0.5,0.6,0.8,1.3,0.8,2.3v4.4H112.7z M112.8,33.2c-0.2-0.1-0.5-0.2-0.8-0.2c-0.3-0.1-0.6-0.1-0.9-0.1c-0.5,0-1,0.1-1.3,0.3
		c-0.3,0.2-0.5,0.5-0.5,0.9v0c0,0.4,0.1,0.6,0.4,0.8c0.3,0.2,0.6,0.3,1,0.3c0.3,0,0.5,0,0.8-0.1c0.2-0.1,0.5-0.2,0.6-0.3
		c0.2-0.1,0.3-0.3,0.4-0.5c0.1-0.2,0.1-0.4,0.1-0.6V33.2z"/>
	<path class="st8" d="M123.8,36.5c-0.4,0-0.9-0.1-1.3-0.3c-0.4-0.2-0.8-0.4-1.1-0.8s-0.6-0.7-0.8-1.2s-0.3-1-0.3-1.7v0
		c0-0.6,0.1-1.2,0.3-1.7c0.2-0.5,0.4-0.9,0.8-1.2c0.3-0.3,0.7-0.6,1.1-0.8c0.4-0.2,0.9-0.3,1.3-0.3c0.6,0,1.1,0.1,1.5,0.4
		c0.4,0.3,0.7,0.6,1,0.9v-4h1.7v10.3h-1.7l0-1.2c-0.3,0.4-0.6,0.7-1,1S124.4,36.5,123.8,36.5z M124.2,35c0.3,0,0.6-0.1,0.8-0.2
		s0.5-0.3,0.7-0.5c0.2-0.2,0.4-0.5,0.5-0.8c0.1-0.3,0.2-0.6,0.2-1v0c0-0.4-0.1-0.7-0.2-1c-0.1-0.3-0.3-0.6-0.5-0.8
		c-0.2-0.2-0.4-0.4-0.7-0.5c-0.3-0.1-0.5-0.2-0.8-0.2c-0.3,0-0.6,0.1-0.8,0.2c-0.3,0.1-0.5,0.3-0.7,0.5c-0.2,0.2-0.4,0.5-0.5,0.8
		c-0.1,0.3-0.2,0.6-0.2,1v0c0,0.4,0.1,0.7,0.2,1c0.1,0.3,0.3,0.6,0.5,0.8c0.2,0.2,0.4,0.4,0.7,0.5C123.6,35,123.9,35,124.2,35z"/>
	<path class="st8" d="M133.6,36.5c-0.5,0-1-0.1-1.5-0.3s-0.9-0.5-1.2-0.8c-0.3-0.3-0.6-0.7-0.8-1.2c-0.2-0.5-0.3-1-0.3-1.6v0
		c0-0.5,0.1-1,0.3-1.5c0.2-0.5,0.4-0.9,0.8-1.2c0.3-0.4,0.7-0.6,1.2-0.8c0.4-0.2,0.9-0.3,1.5-0.3c0.6,0,1.1,0.1,1.6,0.3
		c0.4,0.2,0.8,0.5,1.1,0.9c0.3,0.4,0.5,0.8,0.7,1.3c0.2,0.5,0.2,1,0.2,1.5c0,0.1,0,0.2,0,0.2c0,0.1,0,0.2,0,0.2h-5.5
		c0.1,0.6,0.3,1.1,0.7,1.4c0.4,0.3,0.9,0.5,1.4,0.5c0.4,0,0.8-0.1,1.1-0.2c0.3-0.2,0.6-0.4,0.9-0.7l1,0.9c-0.4,0.4-0.8,0.8-1.3,1
		C134.9,36.4,134.3,36.5,133.6,36.5z M135.3,32.1c0-0.3-0.1-0.5-0.2-0.8c-0.1-0.2-0.2-0.4-0.4-0.6c-0.2-0.2-0.4-0.3-0.6-0.4
		c-0.2-0.1-0.5-0.2-0.8-0.2c-0.5,0-1,0.2-1.3,0.5c-0.3,0.4-0.6,0.8-0.6,1.4H135.3z"/>
	<path class="st8" d="M143.1,26h1.7v10.3h-1.7V26z"/>
	<path class="st8" d="M151.6,36.4v-0.9c-0.3,0.3-0.6,0.6-1,0.8c-0.4,0.2-0.9,0.3-1.4,0.3c-0.4,0-0.7,0-1-0.1
		c-0.3-0.1-0.6-0.2-0.8-0.4c-0.2-0.2-0.4-0.4-0.6-0.7s-0.2-0.6-0.2-1v0c0-0.4,0.1-0.8,0.2-1.1c0.2-0.3,0.4-0.6,0.6-0.8
		c0.3-0.2,0.6-0.4,1-0.5s0.8-0.1,1.2-0.1c0.5,0,0.8,0,1.2,0.1c0.3,0.1,0.6,0.1,0.9,0.2v-0.1c0-0.5-0.2-0.9-0.5-1.2s-0.8-0.4-1.4-0.4
		c-0.4,0-0.8,0-1.1,0.1c-0.3,0.1-0.7,0.2-1,0.3l-0.5-1.4c0.4-0.2,0.8-0.3,1.3-0.5s1-0.2,1.6-0.2c1.1,0,1.9,0.3,2.5,0.8
		c0.5,0.6,0.8,1.3,0.8,2.3v4.4H151.6z M151.7,33.2c-0.2-0.1-0.5-0.2-0.8-0.2c-0.3-0.1-0.6-0.1-0.9-0.1c-0.5,0-1,0.1-1.3,0.3
		c-0.3,0.2-0.5,0.5-0.5,0.9v0c0,0.4,0.1,0.6,0.4,0.8c0.3,0.2,0.6,0.3,1,0.3c0.3,0,0.5,0,0.8-0.1c0.2-0.1,0.5-0.2,0.6-0.3
		c0.2-0.1,0.3-0.3,0.4-0.5c0.1-0.2,0.1-0.4,0.1-0.6V33.2z"/>
	<path class="st8" d="M159.8,26.4h1.6l5.3,6.9v-6.9h1.7v9.9H167l-5.5-7.1v7.1h-1.7V26.4z"/>
	<path class="st8" d="M175.4,36.4v-0.9c-0.3,0.3-0.6,0.6-1,0.8c-0.4,0.2-0.9,0.3-1.4,0.3c-0.4,0-0.7,0-1-0.1
		c-0.3-0.1-0.6-0.2-0.8-0.4c-0.2-0.2-0.4-0.4-0.6-0.7s-0.2-0.6-0.2-1v0c0-0.4,0.1-0.8,0.2-1.1c0.2-0.3,0.4-0.6,0.6-0.8
		c0.3-0.2,0.6-0.4,1-0.5s0.8-0.1,1.2-0.1c0.5,0,0.8,0,1.2,0.1c0.3,0.1,0.6,0.1,0.9,0.2v-0.1c0-0.5-0.2-0.9-0.5-1.2s-0.8-0.4-1.4-0.4
		c-0.4,0-0.8,0-1.1,0.1c-0.3,0.1-0.7,0.2-1,0.3l-0.5-1.4c0.4-0.2,0.8-0.3,1.3-0.5s1-0.2,1.6-0.2c1.1,0,1.9,0.3,2.5,0.8
		c0.5,0.6,0.8,1.3,0.8,2.3v4.4H175.4z M175.5,33.2c-0.2-0.1-0.5-0.2-0.8-0.2c-0.3-0.1-0.6-0.1-0.9-0.1c-0.5,0-1,0.1-1.3,0.3
		c-0.3,0.2-0.5,0.5-0.5,0.9v0c0,0.4,0.1,0.6,0.4,0.8c0.3,0.2,0.6,0.3,1,0.3c0.3,0,0.5,0,0.8-0.1c0.2-0.1,0.5-0.2,0.6-0.3
		c0.2-0.1,0.3-0.3,0.4-0.5c0.1-0.2,0.1-0.4,0.1-0.6V33.2z"/>
	<path class="st8" d="M182.6,36.5c-0.6,0-1.1-0.1-1.5-0.3s-0.9-0.5-1.2-0.8s-0.6-0.8-0.8-1.2s-0.3-1-0.3-1.5v0c0-0.5,0.1-1,0.3-1.5
		s0.5-0.9,0.8-1.2c0.3-0.4,0.8-0.6,1.2-0.8c0.5-0.2,1-0.3,1.6-0.3c0.7,0,1.3,0.1,1.8,0.4c0.5,0.2,0.9,0.5,1.2,0.9l-1.1,1.1
		c-0.3-0.3-0.5-0.5-0.8-0.7c-0.3-0.2-0.7-0.3-1.1-0.3c-0.3,0-0.6,0.1-0.9,0.2c-0.3,0.1-0.5,0.3-0.7,0.5c-0.2,0.2-0.3,0.5-0.4,0.8
		c-0.1,0.3-0.2,0.6-0.2,0.9v0c0,0.3,0.1,0.6,0.2,0.9c0.1,0.3,0.3,0.5,0.5,0.8s0.4,0.4,0.7,0.5c0.3,0.1,0.6,0.2,0.9,0.2
		c0.4,0,0.8-0.1,1.1-0.3c0.3-0.2,0.6-0.4,0.9-0.7l1,1c-0.4,0.4-0.8,0.8-1.3,1C183.9,36.4,183.3,36.5,182.6,36.5z"/>
	<path class="st8" d="M187.3,26.1h1.9v1.6h-1.9V26.1z M187.3,28.9h1.7v7.5h-1.7V28.9z"/>
	<path class="st8" d="M194.8,36.5c-0.6,0-1.1-0.1-1.6-0.3s-0.9-0.5-1.3-0.8c-0.4-0.3-0.6-0.8-0.8-1.2s-0.3-1-0.3-1.5v0
		c0-0.5,0.1-1,0.3-1.5c0.2-0.5,0.5-0.9,0.8-1.2c0.4-0.4,0.8-0.6,1.3-0.8c0.5-0.2,1-0.3,1.6-0.3s1.1,0.1,1.6,0.3s0.9,0.5,1.3,0.8
		c0.4,0.4,0.6,0.8,0.8,1.2c0.2,0.5,0.3,1,0.3,1.5v0c0,0.5-0.1,1-0.3,1.5s-0.5,0.9-0.8,1.2c-0.4,0.4-0.8,0.6-1.3,0.8
		C196,36.4,195.4,36.5,194.8,36.5z M194.9,35c0.3,0,0.7-0.1,0.9-0.2c0.3-0.1,0.5-0.3,0.7-0.5s0.3-0.5,0.5-0.8
		c0.1-0.3,0.2-0.6,0.2-0.9v0c0-0.3-0.1-0.6-0.2-0.9c-0.1-0.3-0.3-0.5-0.5-0.8s-0.4-0.4-0.7-0.5c-0.3-0.1-0.6-0.2-0.9-0.2
		s-0.6,0.1-0.9,0.2c-0.3,0.1-0.5,0.3-0.7,0.5c-0.2,0.2-0.3,0.5-0.5,0.8c-0.1,0.3-0.2,0.6-0.2,0.9v0c0,0.3,0.1,0.6,0.2,0.9
		c0.1,0.3,0.3,0.5,0.5,0.8c0.2,0.2,0.4,0.4,0.7,0.5C194.2,35,194.5,35,194.9,35z M195.7,25.6l1.6,0.7l-1.7,1.6h-1.3L195.7,25.6z"/>
	<path class="st8" d="M200.6,28.9h1.7V30c0.1-0.2,0.3-0.4,0.4-0.5c0.1-0.2,0.3-0.3,0.5-0.4c0.2-0.1,0.4-0.2,0.6-0.3
		c0.2-0.1,0.5-0.1,0.8-0.1c0.8,0,1.5,0.3,2,0.8c0.5,0.5,0.7,1.2,0.7,2.1v4.8h-1.7v-4.2c0-0.6-0.1-1-0.4-1.4
		c-0.3-0.3-0.7-0.5-1.2-0.5c-0.5,0-0.9,0.2-1.2,0.5c-0.3,0.3-0.5,0.8-0.5,1.4v4.2h-1.7V28.9z"/>
</g>
</svg>
